<svg id="Layer_1" data-name="Layer 1"
	xmlns="http://www.w3.org/2000/svg" viewBox="0 0 128 103.07">
	<defs>
		<pattern id="random_glyphs". patternUnits="userSpaceOnUse" width="128" height="128">
			<path d="M92.28,51.93q-12.56.16-25.11-.47,1.11-19.26.42-38.57c-.12-3.54-5.65-3.56-5.52,0q.69,19.13-.38,38.24Q49,50.3,36.44,48.6q-6.79-.93-13.55-2.1c-1.48-.26-4.69-.31-5.73-1.5s-.16-3.69.12-5q2.12-9.87,4.94-19.58a28,28,0,0,1,11.66-.85c3.51.46,3.48-5.07,0-5.53a31.43,31.43,0,0,0-9.83.27c.07-.22.13-.45.2-.67,1.06-3.4-4.27-4.85-5.32-1.47C16,21.58,13,31.32,11.47,41.05c-.58,3.76.12,7.55,3.82,9.34,1.86.9,4.11,1.08,6.13,1.43,2.67.47,5.34.9,8,1.31q15.87,2.4,31.9,3.48-1.12,16-3.52,31.87c-.52,3.48,4.8,5,5.33,1.47q2.48-16.44,3.66-33,12.72.68,25.47.52C95.83,57.41,95.84,51.89,92.28,51.93Z"/>
			<path d="M47.63,23.62a2.79,2.79,0,0,0-3.78-1,33.66,33.66,0,0,1-7,3.79,2.85,2.85,0,0,0-1.93,3.4,2.78,2.78,0,0,0,3.4,1.92,39.51,39.51,0,0,0,8.36-4.34A2.82,2.82,0,0,0,47.63,23.62Z"/>
			<path d="M43.78,13.44c-3.55,0-3.56,5.52,0,5.52S47.34,13.44,43.78,13.44Z"/>
			<path d="M53.15,75.71c0-3.56-5.53-3.56-5.52,0V78.2c-1.1-.62-2.21-1.19-3.33-1.75,1.16-4,2.22-8,3-12.12.64-3.48-4.68-5-5.33-1.47-.71,3.81-1.68,7.56-2.75,11.27A80.27,80.27,0,0,0,22,69.19a85.44,85.44,0,0,0,.57-10.75c0-3.55-5.56-3.56-5.52,0a83.75,83.75,0,0,1-.51,10,78,78,0,0,0-13.93-.15c-3.52.28-3.55,5.81,0,5.52a76.83,76.83,0,0,1,13.14.11q-.54,3-1.32,6l-1.26-.47c-3.33-1.27-4.77,4.07-1.47,5.32l1.18.44c-.79,2.39-1.7,4.74-2.71,7-1.43,3.22,3.33,6,4.76,2.79,1.16-2.62,2.18-5.27,3.08-8Q25.93,90,33.93,92.4c-.6,2.38-1.13,4.78-1.54,7.21-.6,3.48,4.73,5,5.32,1.47.41-2.4.93-4.77,1.52-7.13,1.51.43,3,.85,4.53,1.25,3.56,1,9.06,2.79,9.4-2.74S53.15,81.26,53.15,75.71ZM31.59,85.91q-6-1.89-12-4,1-3.57,1.61-7.22a73.74,73.74,0,0,1,16.4,4.79c-.77,2.53-1.54,5.07-2.27,7.62C34.11,86.69,32.85,86.31,31.59,85.91Zm9.58,2.85-.5-.14c.65-2.28,1.34-4.54,2-6.81.79.41,1.57.83,2.35,1.27a2.56,2.56,0,0,0,2.58,0v1.48c0,1.4,0,2.79,0,4.19,0,.5.06,1.11.09,1.73l-2-.52C44.21,89.61,42.69,89.19,41.17,88.76Z"/>
			<path d="M119.45,10.81c-2.33-1.54-4.93-1.47-7.6-1.1-3.69.52-7.37,1.14-11,1.82Q98,12,95.27,12.6A37.9,37.9,0,0,0,90.48,1.28c-1.9-3-6.68-.22-4.76,2.79a33.82,33.82,0,0,1,4.15,9.69Q84.25,15,78.68,16.47c-3.44.9-2,6.23,1.47,5.33s7.16-1.8,10.76-2.61c.85,6.5.47,13.26.08,19.79-.21,3.55,5.31,3.54,5.52,0,.41-6.93.72-14.07-.21-20.95.93-.19,1.86-.39,2.79-.57q4.51-.88,9-1.62c2.44-.4,6.3-1.73,8.53-.26C119.64,17.53,122.41,12.75,119.45,10.81Z"/>
			<path d="M117.45,37.44a61.73,61.73,0,0,1-13.16-13.88c-2-2.9-6.8-.14-4.77,2.79a70.15,70.15,0,0,0,15.14,15.86C117.48,44.37,120.24,39.58,117.45,37.44Z"/>
			<path d="M124.54,20.21a24.82,24.82,0,0,0-10.94,5.22,2.78,2.78,0,0,0,0,3.91,2.82,2.82,0,0,0,3.9,0A19.16,19.16,0,0,1,126,25.53C129.5,24.86,128,19.53,124.54,20.21Z"/>
		</pattern>
	</defs>
	<rect width="100%" height="100%" fill="url(#random_glyphs)"></rect>
</svg>