<?xml version="1.0" encoding="UTF-8"?><svg id="a" xmlns="http://www.w3.org/2000/svg" viewBox="0 0 256 254.72"><defs><style>.b{fill:#696969;}.c{fill:#7e7e7e;}.d{fill:#7f7f7f;}.e{fill:#818181;}.f{fill:#686868;}.g{fill:#747474;}.h{fill:#999;}.i{fill:#989898;}.j{fill:#9f9f9f;}.k{fill:#a0a0a0;}.l{fill:#8a8a8a;}.m{fill:#8f8f8f;}.n{fill:#737373;}.o{fill:#8e8e8e;}.p{fill:#898989;}.q{fill:#6e6e6e;}.r{fill:#878787;}.s{fill:#555;}.t{fill:#636363;}.u{fill:#565656;}.v{fill:#4a4a4a;}.w{fill:#484848;}.x{fill:#5c5c5c;}.y{fill:#838383;}.a`{fill:#616161;}.aa{fill:#606060;}.ab{fill:#777;}.ac{fill:#7a7a7a;}.ad{fill:#4b4b4b;}.ae{fill:#5e5e5e;}.af{fill:#505050;}.ag{fill:#757575;}</style></defs><path class="ae" d="M207.93,100.51c.09,12.97-.42,25.91-1.25,38.85-.22,3.38,.55,5.54,3.95,6.94,6.29,2.6,12.41,5.62,18.6,8.47-.36,1.72-1.68,1.58-2.9,1.39-6.92-1.09-13.76-2.63-20.62-4.02-1.46-.29-2.79-.51-4.22-.29-.36,0-.73-.02-1.09-.03-1.18-.87-2.42-1.1-3.92-.76-5.2,1.19-10.51,.84-15.77,.76-3.73-.05-6.39,1.44-8.8,4.24-5.21,6.03-9.55,12.81-15.76,17.96-.83,.69-.7,1.65-.59,2.58-.28,1-1.18,1.66-1.43,2.68-.29,.69-.28,1.63-1.12,1.91-2,.68-2.05,2.53-2.56,4.1-.96,2.93-.35,6.21-2.4,8.97-.98,1.32-.09,3.22,.21,4.82,.59,3.19,1.16,6.37,.94,9.64-.2,.3-.47,.45-.83,.47-.77-2.48-2.4-2.63-4.65-2.03-8.82,2.33-17.68,4.52-26.52,6.76-1.28,.33-2.55,.7-3.89,.48-1.28-1.93-1.69-4.17-1.99-6.36-.37-2.73-.87-5.41-1.7-8.04,2.53-8,.04-16.15,.68-24.2,.18-2.23-.7-4.34-.88-6.54,.92-11.46-.7-22.89-.45-34.35,.11-4.83-1.3-9.64-.26-14.48,1.43-2.42,3.98-2.53,6.32-3,23.12-4.65,46.26-9.26,69.38-13.89,5.19-1.04,10.38-2.04,15.56-3.13,2.68-.56,5.33-.74,7.98,.11Z"/><path class="k" d="M208.99,100.51c-17.46,3.54-34.92,7.09-52.39,10.6-14.56,2.93-29.12,5.81-43.68,8.72-.64,.13-1.25,.41-1.88,.61-1.41,.51-2.28-.36-3.15-1.22-10.44-10.28-20.8-20.65-31.09-31.09-1.61-1.63-2.76-3.6-2.77-6.02,6.58-1.17,13.16-2.34,19.74-3.5,1.06-1.31,2.09-.62,2.65,.34,1.71,2.91,3.9,5.26,6.89,6.84,.17,.94,.95,1.38,1.61,1.9,7.35,5.79,16.24,8.54,24.6,12.33,2.22,1,4.51,.64,6.7-.35,.72-.28,1.58-.85,2.19-.49,2.58,1.51,4.87,.21,7.26-.48,3.85-1.12,7.76-1.93,11.7-2.65,3.12-.57,5.8-1.92,8.02-4.21,2.19-2.27,4.39-4.62,7.3-5.93,1.98-.9,.97-3.24,2.48-4.22,.65-.51,1.25-1.08,1.79-1.72,.8-.83,1.8-1.2,2.93-1.27,9.7,7.27,19.39,14.54,29.09,21.81Z"/><path class="v" d="M230.49,242.85c-3.05,1.82-5.92,3.97-9.25,5.3-8.95,2.02-18.04,1.8-27.12,1.63-1.78-.03-3.09-.77-4.23-2.13-4.81-5.71-9.53-11.5-14.24-17.29-1.09-1.34-1.88-2.8-1.2-4.62,3.95-1.97,8-.5,11.95-.13,7.51,.69,15.02,1.45,22.5,2.34,.62-.41,1.37-.66,1.77-1.4,4.59-8.45,8.82-17.09,13.88-25.28,.16-.26,.16-.63,.22-.96,5.12-4.42,10.33-8.73,15.56-13.03,1.28-1.06,2.72-1.75,4.15-2.52,.99-.54,1.86-.59,2.54,.48,.67,3.52-.21,7-.46,10.46-.5,7.09-.96,14.2-2.06,21.21-.24,1.53,1.12,2.52,.46,3.85-.11,.33-.24,.68-.36,1.01-4.99,5.61-8.84,12.09-13.49,17.97-.7,.88-1.89,1.78-.62,3.1Z"/><path class="l" d="M72.97,82.12c6.99,8.94,15.66,16.27,23.47,24.42,4.47,4.67,9.03,9.27,13.54,13.9,.44,14.14,.87,28.28,1.31,42.43,.07,2.21-.09,4.39-.67,6.53,.39,.64,.42,1.49-.25,1.69-4.72,1.41-9.33,3.55-14.49,2.51-1.13-.91-1.35-2.07-.84-3.37,1.36-3.49,2.13-7.23,4.32-10.36,.81-1.16,.53-2.39,.38-3.62,.93-5.03-.8-9.82-1.53-14.67-2.19-14.57-2.55-15.33-12.94-25.64-2.4-2.38-5.07-4.92-8.97-4.8-.6-.39-1.21-.75-1.86-1.06-1.44-.61-1.06-1.78-.89-2.88,0-7.45-.51-14.87-1.22-22.28-.09-.98-.16-1.99,.64-2.78Z"/><path class="f" d="M15.93,189.92c-5.67-8.72-10.67-17.81-15.27-27.14,.82-1.88,2.06-.83,2.97-.27,4.21,2.61,8.66,4.85,12.35,8.24,.57,.52,1.25,.65,1.97,.24,2.67-2.68,3.87-6.26,5.88-9.35,3.19-4.9,5.46-10.39,9.5-14.73,.38-.41,.8-.74,1.34-.93,.34-.06,.68-.1,1.03-.11,4.65-.87,9.22,.25,13.8,.66,5.43,.49,10.9,.73,16.21,2.14,1.44,1.22,.81,2.6,.2,3.9-3.74,7.86-7.69,15.62-11.95,23.22-1.13,2.02-2.84,2.61-4.98,2.52-6.49-.28-12.94-1.17-19.42-1.61-2.92-.2-5.83-1.2-8.78-.3-1.2,.61-1.12,1.75-1.22,2.84-.27,3.05-.73,6.07-1.35,9.07-.26,1.26-.53,2.51-2.3,1.6Z"/><path class="aa" d="M210.63,229.59c-10.32-.45-20.54-2.04-30.82-2.9-1.64-.14-3.28-.25-4.92-.38-.5,5.2-3.96,9.09-6.09,13.57-.57,1.19-1.67,2-3.2,1.65-.66-.88-1.33-1.76-1.99-2.64-3.07-4.7-6.39-9.24-9.22-14.1-2.32-3.98-3.93-8.23-5.15-12.65,1.21-1.37,2.57-.75,3.81-.15,4.88,2.39,9.2,5.87,14.67,7.17,1.69,.4,2.45,2.55,3.89,3.69,.73,.58,1.22,.83,2.04,.63,1.81-1,2.73-2.82,2.63-4.58-.12-2.06,.47-3.04,2.28-3.74,1.82-.71,2.95-2.27,3.99-3.84,2.13-3.22,4.38-6.35,6.65-9.47,1.32-1.81,2.53-3.97,5.24-4.11,4.44,4.06,6.13,9.81,9.12,14.76,2.27,3.76,3.96,7.86,6.2,11.65,1,1.69,1.25,3.52,.87,5.44Z"/><path class="m" d="M134.46,.07l1.36,.02c5.61,2.91,8.41,8.38,11.72,13.28,1.44,2.12-.18,4.49-1.67,6.14-5.51,6.11-10.81,12.41-16.63,18.23-1,1-2,2.15-3.63,2.15-1.69-.79-2.71-2.21-3.38-3.85-2.7-6.62-6.57-12.74-8.53-19.68-.26-.93-1.24-1.44-1.5-2.39,.01-.72,.38-1.3,.94-1.66,5.84-3.87,11.21-8.53,18.06-10.71,1.11-.36,2.17-1.03,3.26-1.54Z"/><path class="d" d="M134.46,.07c-4.87,3.78-10.25,6.81-15.39,10.18-1.75,1.14-3.41,2.41-5.11,3.62,.23,2.93-1.24,5.29-2.65,7.63-3.35,5.55-6.16,11.42-9.89,16.74-.46,.65-.54,1.38-.6,2.13-.03,.54-.19,1.03-.63,1.38-1.18,.52-1.71,1.56-2.31,2.63-2.24,4-4.48,8.01-7.24,11.68-.97,1.3-2.07,2.87-3.85,.83h-.04c-.87-8.8,1.59-17.26,2.66-25.87-.2-5,3.99-7.39,6.6-10.58,3.75-4.57,8.13-8.62,12.12-13.01,2.33-2.56,4.96-3.99,8.49-4.42,5.98-.72,11.9-1.94,17.85-2.95Z"/><path class="e" d="M125.89,39.02c6.39-6.99,12.76-13.99,19.17-20.97,1.84-2,1.59-3.8-.05-5.85-3.17-3.95-6.5-7.79-9.18-12.11,7.35-.71,13.83,2.74,20.68,4.4,2.22,.54,4.36,1.35,6.54,2.04,.89,1.76-.53,2.32-1.61,2.97-3.02,1.82-6.13,3.47-9.22,5.18-.94,.52-2.07,.86-2.28,2.16-.48,1.06,.38,1.78,.64,2.66,1.78,6.14,4.07,12.12,5.92,18.23,.62,2.04,1.22,4.16-.07,6.22-10.34-.1-20.6-.85-30.58-3.83-.21-.38-.2-.74,.05-1.1Z"/><path class="l" d="M96.08,172.7c4.93-.76,9.8-1.77,14.55-3.3,1.02,.69,1.33,1.74,1.29,2.87-.28,7.8,.52,15.56,.71,23.34,.04,1.79-.51,3.21-2,4.24-.6,2.92-3.52,3.57-6.11,1.36-3.19,.23-4.07-2.61-5.56-4.41-3.18-3.83-5.97-7.98-9.47-11.57-1.29-1.22-.25-2.18,.36-3.19,2.49-2.59,2.56-6.46,4.83-9.17,.43-.34,.91-.31,1.39-.17Z"/><path class="u" d="M164.29,7.2c4.75,4.88,9.21,10.09,14.35,14.52,3.68,3.17,5.33,6.58,5.74,11.34,.44,5.12,1.53,10.26,3.08,15.16,.75,2.36,1.35,4.39,.6,6.73-2.88,4.24-7.31,6.61-11.34,9.47-1.21,.86-2.31,1.17-3.64,.48-.31-.22-.61-.45-.9-.71-.87-5.16,.35-10.22,.69-15.32,.36-5.39,1.12-10.74,1.61-16.11-.2-.3-.4-.61-.61-.91-.77-5.17-4.05-9.2-6.27-13.71-1.31-2.66-2.78-5.25-4.02-7.95-.54-1.17-.88-2.31,.71-2.98Z"/><path class="s" d="M165.6,241.54c3-3.64,4.34-8.24,7-12.09,.74-1.07,1.24-2.29,2.29-3.13,5.12,7.18,10.95,13.78,16.66,20.48,1.21,1.42,2.95,1.34,4.6,1.34,8.36,.01,16.73,.01,25.09,.01-8.05,2.7-16.37,4.34-24.58,6.38-1.19,.3-2.46,.24-3.58-.26-9.22-4.11-18.59-7.9-27.47-12.74Z"/><path class="u" d="M15.93,189.92c1.28-3.63,1.38-7.47,2-11.21,.27-1.62,.53-3.22,1.32-4.68,3.31,1.42,5.61,4.04,7.83,6.69,2.62,3.11,5.49,5.99,8.09,9.11,2.17,2.61,4.99,3.69,8.41,3.75,6.91,.13,13.8,.9,20.72,.66,1.28-.04,2.71-.17,3.42,1.37,.3,1.43-.48,1.58-1.7,2.01-5.12,1.82-10.41,3.07-15.56,4.81-2.4,1.1-4.74,1.31-7.31,.25-9.14-3.78-17.89-8.47-27.32-11.57-.98-.32-.19-.81,.09-1.2Z"/><path class="ac" d="M18.61,173.29c-4.6-1.71-8.36-4.86-12.5-7.36-1.79-1.08-3.62-2.1-5.44-3.15-1.37-2.91-.26-5.83,.07-8.71,.85-7.24,1.1-14.55,2.71-21.69,1.63-1.1,2.15,.23,2.65,1.31,1.2,2.61,2.2,5.3,2.91,8.08,.25,.96,.42,1.93,1.21,2.63,4.21,8,6.07,16.81,8.71,25.35,.36,1.16-.28,2.35-.33,3.54Z"/><path class="q" d="M230.49,155.49l1.33,1.32c5.76,6.88,9.11,15.13,13.02,23.06,.71,1.44,1.64,3.07,.59,4.82-1.3,.85-2.59,.61-3.92,0-8.94-4.07-17.96-7.96-26.13-13.51-.23-.26-.38-.56-.44-.9,3.72-5.77,8.57-10.42,14.12-14.4,.44-.31,.96-.27,1.44-.4Z"/><path class="x" d="M242.45,221.05c.87-9.42,1.74-18.84,2.6-28.25,.23-2.52,.44-5.04,.66-7.56-.27-.28-.37-.62-.28-1-.28-2.9,.89-5.41,2.09-7.93,.63-1.32,1.44-1.91,2.8-.92,1.82,8.99,3.64,17.97,5.48,26.96,.25,1.2,.35,2.38-.21,3.53-3,4.75-5.76,9.67-9.57,13.86-1,1.1-1.87,2.25-3.57,1.31Z"/><path class="t" d="M91.4,183.27c-.64,.65-1.27,1.31-1.91,1.96-3.72,3.24-7.43,6.48-11.15,9.72-1.72,1.5-3.73,2.26-6.02,2.29-1.68-.26-3.59,.11-4.72-1.69-.9-1.13-.17-2.06,.38-2.99,4.43-7.44,9.09-14.73,13.72-22.04,.54-.85,1.1-1.65,2.31-1.42,2.53,.87,4.29,3.07,6.81,3.95-.1,3.43,1.41,6.76,.59,10.23Z"/><path class="ab" d="M86.79,56.89c1.82-.58,2.75-2.08,3.69-3.56,2.76-4.33,5.5-8.67,8.24-13,1.51-.43,2.16,.63,2.53,1.7,2.75,8.06,6.22,15.9,7.63,24.38,.09,.55,.02,1.07,0,1.6-.13,.35-.33,.63-.63,.85-.31,.12-.64,.3-.95,.21-6.99-2.12-14.01-4.2-19.95-8.7-.24-.18-.33-.56-.47-.85l-.09-2.62Z"/><path class="ac" d="M230.49,155.49c-4.59,5.12-9.44,9.98-14.57,14.56-1.5,1.07-2.25-.12-2.93-1.08-3.65-5.12-7.39-10.17-10.93-15.36-.82-1.21-1.59-2.5-.72-4.04,9.3,1.73,18.59,3.46,27.89,5.19,.42,.24,.84,.48,1.26,.73Z"/><path class="t" d="M164.29,7.2c3.25,8.31,8.33,15.72,11.89,23.88-1.14,1.33-2.44,.49-3.47,.01-7.57-3.49-14.59-8.01-21.95-11.9-1.25-.66-2.02-2.27-3.03-3.43,4.65-3.82,10.4-5.81,15.3-9.22,.42,.22,.84,.44,1.26,.67Z"/><path class="aa" d="M86.87,59.5c7.05,2.9,14.1,5.8,21.14,8.7,1.78,1.16,1.08,2.94,.79,4.35-.93,4.47-2.25,8.86-3.52,13.25-.39,1.36-.82,2.78-2.63,2.92l-1.31-1.27c-4.29-5.95-8.47-11.97-11.31-18.8-.97-2.34-1.62-4.79-2.59-7.13-.19-.67-.39-1.34-.58-2.01Z"/><path class="c" d="M9.33,144.91c-2.26-2-2.42-5-3.56-7.53-.75-1.67-1.54-3.33-2.31-4.99-.11-1.4-.09-2.77,.66-4.03,5.05-4.45,11.21-6.95,17.16-9.83,.99-.48,2-.91,3.11-.38,.33,.11,.61,.31,.83,.59-.25,3.43-2.01,6.27-3.79,9.03-3.73,5.8-6.07,12.51-11.19,17.42-.35,.04-.65-.06-.92-.29Z"/><path class="ac" d="M25.19,105.79c1.25-1.44,2.97-1.23,4.61-1.33,5.74-.79,11.44-1.87,17.23-2.14,1.77,1.29,.52,2.32-.33,3.22-1.52,1.61-3.43,2.75-5.27,3.95-4.33,2.83-8.59,5.77-12.83,8.73-1.75,1.22-3.4,1.46-5.02-.17-.63-4.25-.33-8.37,1.62-12.27Z"/><path class="u" d="M250.32,175.39c-2.32,2.7-2.98,6.24-4.61,9.28-.25,.26-.45,.23-.6-.1-3.69-7.55-7.4-15.1-11.06-22.66-.81-1.67-1.49-3.39-2.23-5.09,5.98,4.86,11.47,10.24,16.79,15.8,.77,.8,1.44,1.66,1.72,2.77Z"/><path class="g" d="M173.56,64.23c4.83-3.1,9.67-6.19,14.5-9.29-3.07,7.92-6.14,15.84-9.22,23.76l-1.29,2.73c-.22-.04-.54-.03-.62-.17-2.84-5.12-4.68-10.49-4.12-16.46,.03-.34,.45-.44,.75-.58Z"/><path class="t" d="M230.49,242.85c-.96-.04-2.2,.83-2.81-.06-.79-1.14,.58-1.96,1.18-2.78,4.49-6.14,9.03-12.23,13.55-18.34,1.49-.5,1.91,.45,2.28,1.59,1.02,3.2,1.08,6.43,.38,9.69-4.55,3.76-9.57,6.81-14.58,9.89Z"/><path class="ag" d="M25.19,105.79c.12,4.23,.06,8.45-.63,12.64,.19,.16,.25,.32,.16,.45-.08,.13-.16,.19-.23,.19-6.79,3.1-13.58,6.19-20.37,9.29,7.03-7.51,13.6-15.46,21.07-22.57Z"/><path class="a`" d="M47.07,103.22c-5.76,.41-11.51,.83-17.27,1.24,8.45-2.12,17.06-3.41,25.62-4.94,1.25-.22,2.4,.17,3.51,.7,4.88,2.32,9.75,4.64,14.63,6.96,.64,.44,1.27,.88,1.91,1.32-.5,2.24-2.17,1.35-3.37,1.1-7.94-1.67-16.08-2.5-23.74-5.41-.66-.02-1.01-.45-1.29-.97Z"/><path class="g" d="M245.07,232.97c-.83-3.78-1.34-7.63-2.66-11.29,.01-.21,.03-.42,.05-.63,3.46-4.12,6.9-8.26,10.39-12.36,.85-1,1.83-1.88,2.75-2.81-3.41,9.07-6.56,18.24-10.53,27.09Z"/><path class="af" d="M149.74,212.38c4.8,8.74,9.71,17.43,13.87,26.51-3.44-2.97-5.51-7.18-8.87-10.14-6.09-5.37-5.26-12.73-6.38-19.57l.03-.16c2.25-.45,1.41,1.52,1.91,2.44-.12,.35-.31,.66-.56,.92Z"/><path class="af" d="M87.45,61.51c5.25,8.31,9.79,17.01,13.89,25.93-3.42-2.41-5.32-6.32-8.64-8.83-4.44-4.88-4.75-11.02-5.25-17.1Z"/><path class="l" d="M104.52,201.21c2.09-.21,4.16-.5,6.11-1.36,1.39,.37,1.88,1.37,1.95,2.71,.22,3.95,.47,7.89,.7,11.84-3.7-3.1-5.92-7.45-9.17-10.93-.86-.92-.09-1.57,.41-2.26Z"/><path class="b" d="M89.41,31.02c-.4,8.67-1.3,17.3-2.66,25.87-1.37-4.47-1.6-8.96-.39-13.52,1.08-4.1,2.04-8.24,3.05-12.36Z"/><path class="n" d="M68.29,195.23c1.94-.54,2.79,1.13,4.03,2-7.19,2.13-14.46,3.91-21.85,5.21,5.24-2.84,11.22-3.82,16.5-6.55,.15-.81,.68-.84,1.32-.66Z"/><path class="o" d="M201.34,149.58c4.86,6.83,9.72,13.65,14.57,20.48v.66c.05,.15,.08,.3,.12,.46-.05,2.16-1.38,3.72-2.61,5.26-4.57,5.72-9.14,11.44-13.72,17.16-1.41,1.76-2.8,3.51-4.83,4.61-.26,.14-.54,.23-.83,.26-3.5,3.69-5.91,8.17-8.96,12.19-1.71,2.25-3.42,4.43-5.45,6.46-1.12,1.12-1.65,3.73-2.92,5.43-.78,1.05-1.64,2.04-2.47,3.06-2.03-1.29-3.04-3.3-3.79-5.46-2.19-6.3-4.25-12.64-6.35-18.97-.64-1.94-.65-3.95-.95-5.94,.06-.36,.25-.66,.53-.89,5.93-.82,11.77,.45,17.65,.84,1.86,.12,3.71,.4,5.58,.38,2.85-.03,3.42-.96,2.14-3.79-2.35-5.2-4.6-10.44-7.11-15.56-1.36-2.78-2.47-5.59-2.76-8.69-.29-2.15,1.35-3.19,2.66-4.27,4.6-3.78,9.22-7.53,13.81-11.33,1.51-1.25,3.54-1.24,5.05-2.38,.22,0,.43,.02,.65,.03Z"/><path class="c" d="M152.33,178l1.34-1.99c7-5.47,15.83-6.52,23.76-9.76,.62-.25,1.5-.37,2.05,.41,.46,1.98,.36,3.91-.64,5.7-3.52,6.3-7.01,12.61-10.51,18.92-.97,1.74-2.26,3.04-4.01,3.93l-.08,.02c-.43,3.43-2.82,5.69-4.92,8.09-2.08,2.38-4.15,4.78-6.4,6.99-.9,.88-2.52,2.75-3.55-.17-1.31-9.45-.16-18.75,1.88-27.95,.31-1.38,.46-2.86,1.08-4.18Z"/><path class="ag" d="M179.5,167.41c-7.46,2.54-14.91,5.09-22.37,7.61-1.14,.38-2.31,.66-3.46,.99,4.21-6.48,10.09-11.66,14.31-18.06,4.27-6.48,9.72-8.65,17.26-7.91,5.09,.5,10.3-.28,15.46-.49-5.23,5.32-11.4,9.53-17.01,14.39-1.23,1.07-2.36,2.26-3.54,3.39-.16,.49-.37,.51-.64,.08Z"/><path class="b" d="M152.33,178c-.22,8.99-1.65,17.88-2.24,26.84-.14,2.07-.24,4.15-.37,6.23,.17,.18,.22,.35,.14,.51-.07,.15-.14,.23-.21,.23-.42-.93-.84-1.85-1.27-2.78-.04-3.23-.76-6.42-1.93-9.3-1.89-4.64,.33-8.45,1.72-12.42,1.11-3.2,2.75-6.21,4.16-9.3Z"/><path class="u" d="M102.66,88.72c1.82-6.83,4.02-13.56,5.36-20.52l-.04-.11c.3-.2,.63-.29,.99-.29,4.99,3.43,7.74,8.84,11.64,13.22,.8,.9,1.57,1.85,2.22,2.87,2.65,4.17,6.29,5.69,11.32,5.94,6.02,.3,12.11-.07,18.09,1.08,1.04,.2,2.25,0,2.88,1.2,.79,2.1-.84,2.72-2.18,3.37-4.32,2.09-8.84,3.71-13.49,4.9-1.48,.38-2.88,.94-4.32,1.42-2.14,.61-4.3,1.16-6.46,.17-8.27-3.79-17.12-6.41-24.53-11.96-.52-.39-.99-.86-1.48-1.29Z"/><path class="t" d="M173.56,64.23c.16,4.33,2.03,8.26,2.97,12.4,.36,1.6,.69,3.2,1.03,4.8-.45,.42-.89,.85-1.34,1.27-4.96,3.59-10.08,6.94-15.74,9.36-1.44,.62-2.86,1.65-4.57,.78-1.22-1.19-1.09-2.46-.25-3.8,5.01-8.05,10.17-16,15.24-24.01,.63-1,1.34-1.83,2.64-.93l.02,.12Z"/><path class="n" d="M156.29,91.92c6.64-3.07,13.28-6.15,19.92-9.22-4.43,4.25-8.84,8.53-13.32,12.73-.95,.89-2.15,1.52-3.49,1.77-8.1,1.53-16.19,3.06-24.28,4.6,4.96-2.83,10.36-4.71,15.49-7.18,1.28-.62,2.51-1.32,3.77-1.98,.25-1.26,.99-1.21,1.91-.72Z"/><path class="f" d="M194.04,198.46c.01-.19,.02-.38,.04-.57,3.78-1.71,7.65-.66,11.49-.4,5.16,.34,10.29,1.06,15.45,1.48,1.49,.12,2.91,.64,4.23,1.36,.33,.23,.54,.53,.6,.92-4.63,9.69-9.79,19.09-15.22,28.35-5.53-10.38-11.06-20.76-16.59-31.14Z"/><path class="p" d="M245.11,184.57c.2,.03,.4,.06,.6,.1,0,.19,0,.38,0,.57-6.62,5.34-13.24,10.67-19.87,16.01l.04-.2c-1.58-1-2.41-2.49-2.99-4.22-2.13-6.34-4.16-12.7-6.35-19.02-.81-2.34-1.33-4.65-.63-7.09h.01c4.29,1.47,8.14,3.86,12.21,5.78,5.67,2.67,11.32,5.38,16.97,8.07Z"/><path class="u" d="M76.88,109.2c7.07,1.64,10.97,7.27,15.66,12.05,4.11,4.19,5.92,9.06,6.56,14.66,.78,6.77,2.72,13.37,2.89,20.23-3.56,5.96-9.61,9.16-14.82,13.29-1.26,1-2.7,.32-4.01-.24-.93-3.15-.09-6.28,.28-9.36,.89-7.41,1.07-14.9,2.66-22.23,.04-.18-.14-.41-.24-.6-.22-.3-.4-.62-.56-.96,.27-1.44-.18-2.63-.8-3.98-3.05-6.57-5.62-13.35-8.15-20.13-.34-.92-1.13-2.12,.54-2.73Z"/><path class="q" d="M76.88,109.2l10.53,26.47c-1.88,.84-3.65,.28-5.33-.53-6.7-3.24-13.32-6.65-20.13-9.67-1.61-.71-2.69-2.23-4.4-2.75-.31-.13-.59-.31-.83-.55-3.86-4.87-6.36-10.51-9-16.06-.53-1.1-.21-2.09,.67-2.9,9.02,1.77,18.05,3.53,27.07,5.3,.47,.23,.95,.47,1.42,.7Z"/><path class="q" d="M84.15,169.4c5.95-4.42,11.89-8.84,17.84-13.26-1.97,5.52-3.94,11.04-5.91,16.56-.23,.22-.45,.44-.68,.66-1.66,.97-3.12,3.57-5.27,.66-3.1,.33-4.58-1.79-6.02-3.97-.16-.16-.2-.31-.14-.45,.06-.14,.13-.21,.18-.21Z"/><path class="w" d="M84.15,169.4c-.02,.22-.03,.44-.05,.66-5.27,8.39-10.55,16.78-15.82,25.17-.44,.22-.88,.44-1.32,.66-8.68,.24-17.33-.38-26-.7-1.71-.06-3.22-.46-4.51-1.67-6.34-5.97-11.76-12.74-17.21-19.49,8.56,.76,17.12,1.4,25.66,2.31,6.19,.66,6.54,.64,9.32-4.73,3.81-7.33,7.62-14.67,11.42-22,.01-.16,.02-.32,.03-.47,.46-1.28,1.37-2.19,2.49-2.93,4.95-3.24,9.95-6.41,14.99-9.5,1.28-.79,2.75-1.42,4.28-.42l-3.3,33.11Z"/><path class="l" d="M48.4,103.2c2.37,6.53,6.43,12.22,9.28,18.51-.43,3.38-3.11,5.34-5.09,7.64-3.82,4.41-7.92,8.58-11.65,13.08-1.61,1.94-3.72,3.13-5.8,4.42-.21,.03-.41,.07-.62,.11-.17-.04-.33-.08-.5-.12-1.39-.96-2.03-2.41-2.59-3.93-2.06-5.59-3.91-11.25-6.06-16.8-.88-2.27-1.16-4.57-.81-6.96l-.09-.06c.02-.21,.05-.43,.07-.65,7.81-4.62,15.23-9.82,22.52-15.21,.44,0,.89-.01,1.33-.02Z"/><path class="y" d="M35.14,146.84c1.07-2.77,3.5-4.49,5.39-6.56,5.68-6.22,10.85-12.91,17.15-18.57h-.01c1.61,1.46,2.62,3.28,3.23,5.35,1.76,5.99,3.45,12.01,5.15,18.02,.45,1.58,.45,3.03-.46,4.43l.08,.1c-10.22-.42-20.34-1.95-30.52-2.77Z"/><path class="r" d="M9.33,144.91h.68c.98-1.05,2.19-1.14,3.56-1.15,5.51-.02,10.96,.84,16.46,.86,1.85,0,3.09,1.14,4.39,2.21l.1,.13c-5.42,8.71-10.04,17.9-15.92,26.34-3.09-9.46-6.19-18.92-9.28-28.38Z"/><path class="ab" d="M149.66,211.81c.02-.25,.04-.49,.07-.74,5.27-4.89,9.52-10.7,14.51-15.84,2.89,10.27,6.49,20.3,10.01,30.37-3.11-1.08-5.5-3.58-8.28-4.85-3.98-1.82-7.65-4.13-11.56-6.01-1.57-.75-3.11-1.57-4.66-2.35-.03-.19-.05-.38-.08-.57Z"/><path class="h" d="M125.89,39.02c-.02,.2-.04,.4-.06,.6-.08,.18-.15,.37-.23,.56-.33,.25-.69,.4-1.09,.47-7.58,1.26-15.2,.62-22.82,.46-1.07-.02-1.6-.87-2.32-1.43,4.23-8.96,9.39-17.4,14.58-25.81,3.36,7.36,6.7,14.72,10.1,22.06,.5,1.08,1.22,2.06,1.84,3.09Z"/><path class="y" d="M99.37,39.68c8.64,.03,17.28,.05,25.92,.08,1.34,1.6,.21,3.07-.49,4.32-4.1,7.35-8.65,14.43-13.05,21.6-.65,1.06-1.74,1.6-2.64,2.36-.16,.03-.31,.06-.46,.1-.22-.01-.45-.03-.67-.04-2.61-9.41-5.7-18.67-9.25-27.76,.21-.22,.43-.43,.64-.65Z"/><path class="f" d="M125.83,39.62l30.5,3.26c.17,.04,.34,.08,.51,.12,1.21,1.37,.1,2.55-.49,3.58-4.18,7.37-7.51,15.18-11.85,22.46-.66,1.1-1.09,2.51-2.8,2.4-1.69-1.02-2.44-2.81-3.31-4.39-4.02-7.28-7.71-14.74-11.73-22.02-.93-1.69-1.32-3.42-.76-5.3l-.08-.11Z"/><path class="p" d="M147.73,15.76c8.7,4.72,17.39,9.44,26.09,14.15,.77,.42,1.57,.78,2.36,1.17,0,.21,0,.42,0,.63-1.11,2.19-2.96,3.53-5.08,4.65-3.96,2.08-7.64,4.65-11.67,6.61-.98,.48-2.05,1.6-3.14,.09l.03-.18c-2.78-9.07-6.22-17.92-8.59-27.12Z"/><path class="g" d="M90.13,174.03c1.76-.22,3.51-.44,5.27-.66-1,3.44-2.25,6.77-4,9.91-.24-2.05-1.41-3.7-2.42-5.39-1.1-1.84-.89-3.06,1.14-3.86Z"/><path class="ad" d="M156.3,43.06c6.54-3.94,13.01-7.99,19.89-11.35-.79,8.5-1.61,17-2.36,25.51-.2,2.29-.2,4.59-.29,6.89-5.35,8.38-10.7,16.75-16.02,25.15-.52,.82-.82,1.78-1.23,2.67-.64,.24-1.27,.48-1.91,.72-8.35-.46-16.69-.94-25.04-1.38-1.74-.09-3.29-.58-4.37-1.97-5.46-7.04-11.32-13.78-16.32-21.17l-.02-.02c1.08-.91,2.33-1.5,3.73-1.38,8.11,.67,16.26,.77,24.37,1.61,1.87,.19,3.47,.84,5.03,1.75,5.51-8.65,9.42-18.16,14.54-27.02Z"/><path class="j" d="M34.42,146.82c-8.14-.64-16.28-1.28-24.42-1.92,3.03-6.97,7.43-13.18,11.03-19.83,1.1-2.02,2.35-3.96,3.54-5.94,3.62,9.11,6.99,18.31,9.85,27.69Z"/><path class="y" d="M215.92,170.72c3.47,10.06,7.07,20.08,9.97,30.33-10.62-.83-21.25-1.69-31.81-3.16,7.28-9.06,14.56-18.11,21.84-27.17Z"/><path class="i" d="M179.5,167.41c.21-.03,.43-.05,.64-.08,3.31,8.75,7.6,17.05,11.43,25.56,.6,1.34,1.95,2.79,.75,4.25-1,1.22-2.67,.64-4.07,.5-7.98-.8-15.95-1.62-23.93-2.43,5.06-9.27,10.12-18.54,15.18-27.8Z"/><path class="l" d="M65.59,149.51c-2.64-9.26-5.28-18.53-7.92-27.79,6.65,3.11,13.29,6.22,19.94,9.33,3.27,1.53,6.54,3.08,9.81,4.62,.02,.21,.03,.42,.04,.62-6.32,3.29-12.04,7.55-18.14,11.21-1.21,.73-2.28,1.72-3.73,2.01Z"/><path class="aa" d="M141.76,70.08c-11.07-.26-22.1-1.19-33.13-1.98,4.15-8.12,9.44-15.56,13.94-23.47,.92-1.62,1.81-3.25,2.72-4.88,.21-.02,.41-.03,.62-.03,5.29,10.12,10.57,20.24,15.86,30.36Z"/></svg>