<?xml version="1.0" encoding="utf-8"?>
<!-- Generator: Adobe Illustrator 26.2.1, SVG Export Plug-In . SVG Version: 6.00 Build 0)  -->
<svg version="1.1" id="a" xmlns="http://www.w3.org/2000/svg" xmlns:xlink="http://www.w3.org/1999/xlink" x="0px" y="0px"
	 viewBox="0 0 256 254.7" style="enable-background:new 0 0 256 254.7;" xml:space="preserve">
<style type="text/css">
	.st0{fill:#5E5E5E;}
	.st1{fill:#A0A0A0;}
	.st2{fill:#4A4A4A;}
	.st3{fill:#8A8A8A;}
	.st4{fill:#686868;}
	.st5{fill:#606060;}
	.st6{fill:#8F8F8F;}
	.st7{fill:#7F7F7F;}
	.st8{fill:#818181;}
	.st9{fill:#565656;}
	.st10{fill:#555555;}
	.st11{fill:#7A7A7A;}
	.st12{fill:#6E6E6E;}
	.st13{fill:#5C5C5C;}
	.st14{fill:#636363;}
	.st15{fill:#777777;}
	.st16{fill:#7E7E7E;}
	.st17{fill:#747474;}
	.st18{fill:#757575;}
	.st19{fill:#616161;}
	.st20{fill:#505050;}
	.st21{fill:#696969;}
	.st22{fill:#737373;}
	.st23{fill:#8E8E8E;}
	.st24{fill:#898989;}
	.st25{fill:#484848;}
	.st26{fill:#838383;}
	.st27{fill:#878787;}
	.st28{fill:#999999;}
	.st29{fill:#4B4B4B;}
	.st30{fill:#9F9F9F;}
	.st31{fill:#989898;}
</style>
<path class="st0" d="M207.9,100.5c0.1,13-0.4,25.9-1.2,38.8c-0.2,3.4,0.6,5.5,3.9,6.9c6.3,2.6,12.4,5.6,18.6,8.5
	c-0.4,1.7-1.7,1.6-2.9,1.4c-6.9-1.1-13.8-2.6-20.6-4c-1.5-0.3-2.8-0.5-4.2-0.3c-0.4,0-0.7,0-1.1,0c-1.2-0.9-2.4-1.1-3.9-0.8
	c-5.2,1.2-10.5,0.8-15.8,0.8c-3.7-0.1-6.4,1.4-8.8,4.2c-5.2,6-9.6,12.8-15.8,18c-0.8,0.7-0.7,1.6-0.6,2.6c-0.3,1-1.2,1.7-1.4,2.7
	c-0.3,0.7-0.3,1.6-1.1,1.9c-2,0.7-2.1,2.5-2.6,4.1c-1,2.9-0.4,6.2-2.4,9c-1,1.3-0.1,3.2,0.2,4.8c0.6,3.2,1.2,6.4,0.9,9.6
	c-0.2,0.3-0.5,0.4-0.8,0.5c-0.8-2.5-2.4-2.6-4.6-2c-8.8,2.3-17.7,4.5-26.5,6.8c-1.3,0.3-2.6,0.7-3.9,0.5c-1.3-1.9-1.7-4.2-2-6.4
	c-0.4-2.7-0.9-5.4-1.7-8c2.5-8,0-16.1,0.7-24.2c0.2-2.2-0.7-4.3-0.9-6.5c0.9-11.5-0.7-22.9-0.4-34.4c0.1-4.8-1.3-9.6-0.3-14.5
	c1.4-2.4,4-2.5,6.3-3c23.1-4.7,46.3-9.3,69.4-13.9c5.2-1,10.4-2,15.6-3.1C202.7,99.9,205.3,99.7,207.9,100.5L207.9,100.5z"/>
<path class="st1" d="M209,100.5c-17.5,3.5-34.9,7.1-52.4,10.6c-14.6,2.9-29.1,5.8-43.7,8.7c-0.6,0.1-1.2,0.4-1.9,0.6
	c-1.4,0.5-2.3-0.4-3.2-1.2c-10.4-10.3-20.8-20.7-31.1-31.1c-1.6-1.6-2.8-3.6-2.8-6c6.6-1.2,13.2-2.3,19.7-3.5
	c1.1-1.3,2.1-0.6,2.7,0.3c1.7,2.9,3.9,5.3,6.9,6.8c0.2,0.9,0.9,1.4,1.6,1.9c7.3,5.8,16.2,8.5,24.6,12.3c2.2,1,4.5,0.6,6.7-0.3
	c0.7-0.3,1.6-0.8,2.2-0.5c2.6,1.5,4.9,0.2,7.3-0.5c3.9-1.1,7.8-1.9,11.7-2.7c3.1-0.6,5.8-1.9,8-4.2c2.2-2.3,4.4-4.6,7.3-5.9
	c2-0.9,1-3.2,2.5-4.2c0.6-0.5,1.2-1.1,1.8-1.7c0.8-0.8,1.8-1.2,2.9-1.3C189.6,86,199.3,93.2,209,100.5L209,100.5z"/>
<path class="st2" d="M230.5,242.9c-3.1,1.8-5.9,4-9.2,5.3c-8.9,2-18,1.8-27.1,1.6c-1.8,0-3.1-0.8-4.2-2.1
	c-4.8-5.7-9.5-11.5-14.2-17.3c-1.1-1.3-1.9-2.8-1.2-4.6c3.9-2,8-0.5,11.9-0.1c7.5,0.7,15,1.4,22.5,2.3c0.6-0.4,1.4-0.7,1.8-1.4
	c4.6-8.4,8.8-17.1,13.9-25.3c0.2-0.3,0.2-0.6,0.2-1c5.1-4.4,10.3-8.7,15.6-13c1.3-1.1,2.7-1.8,4.1-2.5c1-0.5,1.9-0.6,2.5,0.5
	c0.7,3.5-0.2,7-0.5,10.5c-0.5,7.1-1,14.2-2.1,21.2c-0.2,1.5,1.1,2.5,0.5,3.9c-0.1,0.3-0.2,0.7-0.4,1c-5,5.6-8.8,12.1-13.5,18
	C230.4,240.6,229.2,241.5,230.5,242.9L230.5,242.9z"/>
<path class="st3" d="M73,82.1c7,8.9,15.7,16.3,23.5,24.4c4.5,4.7,9,9.3,13.5,13.9c0.4,14.1,0.9,28.3,1.3,42.4
	c0.1,2.2-0.1,4.4-0.7,6.5c0.4,0.6,0.4,1.5-0.2,1.7c-4.7,1.4-9.3,3.6-14.5,2.5c-1.1-0.9-1.3-2.1-0.8-3.4c1.4-3.5,2.1-7.2,4.3-10.4
	c0.8-1.2,0.5-2.4,0.4-3.6c0.9-5-0.8-9.8-1.5-14.7c-2.2-14.6-2.6-15.3-12.9-25.6c-2.4-2.4-5.1-4.9-9-4.8c-0.6-0.4-1.2-0.8-1.9-1.1
	c-1.4-0.6-1.1-1.8-0.9-2.9c0-7.4-0.5-14.9-1.2-22.3C72.2,83.9,72.2,82.9,73,82.1L73,82.1z"/>
<path class="st4" d="M15.9,189.9c-5.7-8.7-10.7-17.8-15.3-27.1c0.8-1.9,2.1-0.8,3-0.3c4.2,2.6,8.7,4.9,12.4,8.2
	c0.6,0.5,1.2,0.6,2,0.2c2.7-2.7,3.9-6.3,5.9-9.4c3.2-4.9,5.5-10.4,9.5-14.7c0.4-0.4,0.8-0.7,1.3-0.9c0.3-0.1,0.7-0.1,1-0.1
	c4.7-0.9,9.2,0.2,13.8,0.7c5.4,0.5,10.9,0.7,16.2,2.1c1.4,1.2,0.8,2.6,0.2,3.9c-3.7,7.9-7.7,15.6-12,23.2c-1.1,2-2.8,2.6-5,2.5
	c-6.5-0.3-12.9-1.2-19.4-1.6c-2.9-0.2-5.8-1.2-8.8-0.3c-1.2,0.6-1.1,1.8-1.2,2.8c-0.3,3.1-0.7,6.1-1.4,9.1
	C17.9,189.6,17.7,190.8,15.9,189.9L15.9,189.9z"/>
<path class="st5" d="M210.6,229.6c-10.3-0.4-20.5-2-30.8-2.9c-1.6-0.1-3.3-0.2-4.9-0.4c-0.5,5.2-4,9.1-6.1,13.6
	c-0.6,1.2-1.7,2-3.2,1.6c-0.7-0.9-1.3-1.8-2-2.6c-3.1-4.7-6.4-9.2-9.2-14.1c-2.3-4-3.9-8.2-5.1-12.6c1.2-1.4,2.6-0.8,3.8-0.1
	c4.9,2.4,9.2,5.9,14.7,7.2c1.7,0.4,2.4,2.6,3.9,3.7c0.7,0.6,1.2,0.8,2,0.6c1.8-1,2.7-2.8,2.6-4.6c-0.1-2.1,0.5-3,2.3-3.7
	c1.8-0.7,2.9-2.3,4-3.8c2.1-3.2,4.4-6.4,6.6-9.5c1.3-1.8,2.5-4,5.2-4.1c4.4,4.1,6.1,9.8,9.1,14.8c2.3,3.8,4,7.9,6.2,11.6
	C210.8,225.8,211,227.7,210.6,229.6L210.6,229.6z"/>
<path class="st6" d="M134.5,0.1l1.4,0c5.6,2.9,8.4,8.4,11.7,13.3c1.4,2.1-0.2,4.5-1.7,6.1c-5.5,6.1-10.8,12.4-16.6,18.2
	c-1,1-2,2.2-3.6,2.2c-1.7-0.8-2.7-2.2-3.4-3.8c-2.7-6.6-6.6-12.7-8.5-19.7c-0.3-0.9-1.2-1.4-1.5-2.4c0-0.7,0.4-1.3,0.9-1.7
	c5.8-3.9,11.2-8.5,18.1-10.7C132.3,1.2,133.4,0.6,134.5,0.1L134.5,0.1z"/>
<path class="st7" d="M134.5,0.1c-4.9,3.8-10.2,6.8-15.4,10.2c-1.8,1.1-3.4,2.4-5.1,3.6c0.2,2.9-1.2,5.3-2.7,7.6
	c-3.3,5.5-6.2,11.4-9.9,16.7c-0.5,0.7-0.5,1.4-0.6,2.1c0,0.5-0.2,1-0.6,1.4c-1.2,0.5-1.7,1.6-2.3,2.6c-2.2,4-4.5,8-7.2,11.7
	c-1,1.3-2.1,2.9-3.8,0.8h0c-0.9-8.8,1.6-17.3,2.7-25.9c-0.2-5,4-7.4,6.6-10.6c3.8-4.6,8.1-8.6,12.1-13c2.3-2.6,5-4,8.5-4.4
	C122.6,2.3,128.5,1.1,134.5,0.1L134.5,0.1z"/>
<path class="st8" d="M125.9,39c6.4-7,12.8-14,19.2-21c1.8-2,1.6-3.8-0.1-5.9c-3.2-3.9-6.5-7.8-9.2-12.1c7.4-0.7,13.8,2.7,20.7,4.4
	c2.2,0.5,4.4,1.3,6.5,2c0.9,1.8-0.5,2.3-1.6,3c-3,1.8-6.1,3.5-9.2,5.2c-0.9,0.5-2.1,0.9-2.3,2.2c-0.5,1.1,0.4,1.8,0.6,2.7
	c1.8,6.1,4.1,12.1,5.9,18.2c0.6,2,1.2,4.2-0.1,6.2c-10.3-0.1-20.6-0.8-30.6-3.8C125.6,39.7,125.6,39.4,125.9,39L125.9,39z"/>
<path class="st3" d="M96.1,172.7c4.9-0.8,9.8-1.8,14.6-3.3c1,0.7,1.3,1.7,1.3,2.9c-0.3,7.8,0.5,15.6,0.7,23.3c0,1.8-0.5,3.2-2,4.2
	c-0.6,2.9-3.5,3.6-6.1,1.4c-3.2,0.2-4.1-2.6-5.6-4.4c-3.2-3.8-6-8-9.5-11.6c-1.3-1.2-0.2-2.2,0.4-3.2c2.5-2.6,2.6-6.5,4.8-9.2
	C95.1,172.5,95.6,172.6,96.1,172.7L96.1,172.7z"/>
<path class="st9" d="M164.3,7.2c4.8,4.9,9.2,10.1,14.4,14.5c3.7,3.2,5.3,6.6,5.7,11.3c0.4,5.1,1.5,10.3,3.1,15.2
	c0.8,2.4,1.4,4.4,0.6,6.7c-2.9,4.2-7.3,6.6-11.3,9.5c-1.2,0.9-2.3,1.2-3.6,0.5c-0.3-0.2-0.6-0.4-0.9-0.7c-0.9-5.2,0.4-10.2,0.7-15.3
	c0.4-5.4,1.1-10.7,1.6-16.1c-0.2-0.3-0.4-0.6-0.6-0.9c-0.8-5.2-4.1-9.2-6.3-13.7c-1.3-2.7-2.8-5.2-4-7.9C163,9,162.7,7.9,164.3,7.2
	L164.3,7.2z"/>
<path class="st10" d="M165.6,241.5c3-3.6,4.3-8.2,7-12.1c0.7-1.1,1.2-2.3,2.3-3.1c5.1,7.2,10.9,13.8,16.7,20.5
	c1.2,1.4,2.9,1.3,4.6,1.3c8.4,0,16.7,0,25.1,0c-8.1,2.7-16.4,4.3-24.6,6.4c-1.2,0.3-2.5,0.2-3.6-0.3
	C183.9,250.2,174.5,246.4,165.6,241.5L165.6,241.5z"/>
<path class="st9" d="M15.9,189.9c1.3-3.6,1.4-7.5,2-11.2c0.3-1.6,0.5-3.2,1.3-4.7c3.3,1.4,5.6,4,7.8,6.7c2.6,3.1,5.5,6,8.1,9.1
	c2.2,2.6,5,3.7,8.4,3.8c6.9,0.1,13.8,0.9,20.7,0.7c1.3,0,2.7-0.2,3.4,1.4c0.3,1.4-0.5,1.6-1.7,2c-5.1,1.8-10.4,3.1-15.6,4.8
	c-2.4,1.1-4.7,1.3-7.3,0.2c-9.1-3.8-17.9-8.5-27.3-11.6C14.8,190.8,15.6,190.3,15.9,189.9L15.9,189.9z"/>
<path class="st11" d="M18.6,173.3c-4.6-1.7-8.4-4.9-12.5-7.4c-1.8-1.1-3.6-2.1-5.4-3.1c-1.4-2.9-0.3-5.8,0.1-8.7
	c0.9-7.2,1.1-14.6,2.7-21.7c1.6-1.1,2.1,0.2,2.6,1.3c1.2,2.6,2.2,5.3,2.9,8.1c0.2,1,0.4,1.9,1.2,2.6c4.2,8,6.1,16.8,8.7,25.4
	C19.3,170.9,18.6,172.1,18.6,173.3L18.6,173.3z"/>
<path class="st12" d="M230.5,155.5l1.3,1.3c5.8,6.9,9.1,15.1,13,23.1c0.7,1.4,1.6,3.1,0.6,4.8c-1.3,0.9-2.6,0.6-3.9,0
	c-8.9-4.1-18-8-26.1-13.5c-0.2-0.3-0.4-0.6-0.4-0.9c3.7-5.8,8.6-10.4,14.1-14.4C229.5,155.6,230,155.6,230.5,155.5L230.5,155.5z"/>
<path class="st13" d="M242.4,221.1c0.9-9.4,1.7-18.8,2.6-28.2c0.2-2.5,0.4-5,0.7-7.6c-0.3-0.3-0.4-0.6-0.3-1
	c-0.3-2.9,0.9-5.4,2.1-7.9c0.6-1.3,1.4-1.9,2.8-0.9c1.8,9,3.6,18,5.5,27c0.2,1.2,0.3,2.4-0.2,3.5c-3,4.8-5.8,9.7-9.6,13.9
	C245,220.8,244.1,222,242.4,221.1L242.4,221.1z"/>
<path class="st14" d="M91.4,183.3c-0.6,0.6-1.3,1.3-1.9,2c-3.7,3.2-7.4,6.5-11.2,9.7c-1.7,1.5-3.7,2.3-6,2.3
	c-1.7-0.3-3.6,0.1-4.7-1.7c-0.9-1.1-0.2-2.1,0.4-3c4.4-7.4,9.1-14.7,13.7-22c0.5-0.9,1.1-1.6,2.3-1.4c2.5,0.9,4.3,3.1,6.8,3.9
	C90.7,176.5,92.2,179.8,91.4,183.3L91.4,183.3z"/>
<path class="st15" d="M86.8,56.9c1.8-0.6,2.8-2.1,3.7-3.6c2.8-4.3,5.5-8.7,8.2-13c1.5-0.4,2.2,0.6,2.5,1.7
	c2.8,8.1,6.2,15.9,7.6,24.4c0.1,0.6,0,1.1,0,1.6c-0.1,0.3-0.3,0.6-0.6,0.8c-0.3,0.1-0.6,0.3-0.9,0.2c-7-2.1-14-4.2-19.9-8.7
	c-0.2-0.2-0.3-0.6-0.5-0.8L86.8,56.9L86.8,56.9z"/>
<path class="st11" d="M230.5,155.5c-4.6,5.1-9.4,10-14.6,14.6c-1.5,1.1-2.2-0.1-2.9-1.1c-3.6-5.1-7.4-10.2-10.9-15.4
	c-0.8-1.2-1.6-2.5-0.7-4c9.3,1.7,18.6,3.5,27.9,5.2C229.7,155,230.1,155.2,230.5,155.5L230.5,155.5z"/>
<path class="st14" d="M164.3,7.2c3.2,8.3,8.3,15.7,11.9,23.9c-1.1,1.3-2.4,0.5-3.5,0c-7.6-3.5-14.6-8-21.9-11.9
	c-1.2-0.7-2-2.3-3-3.4c4.6-3.8,10.4-5.8,15.3-9.2C163.4,6.8,163.9,7,164.3,7.2L164.3,7.2z"/>
<path class="st5" d="M86.9,59.5c7.1,2.9,14.1,5.8,21.1,8.7c1.8,1.2,1.1,2.9,0.8,4.3c-0.9,4.5-2.2,8.9-3.5,13.2
	c-0.4,1.4-0.8,2.8-2.6,2.9l-1.3-1.3c-4.3-5.9-8.5-12-11.3-18.8c-1-2.3-1.6-4.8-2.6-7.1C87.3,60.8,87.1,60.2,86.9,59.5L86.9,59.5z"/>
<path class="st16" d="M9.3,144.9c-2.3-2-2.4-5-3.6-7.5c-0.8-1.7-1.5-3.3-2.3-5c-0.1-1.4-0.1-2.8,0.7-4c5.1-4.4,11.2-6.9,17.2-9.8
	c1-0.5,2-0.9,3.1-0.4c0.3,0.1,0.6,0.3,0.8,0.6c-0.2,3.4-2,6.3-3.8,9c-3.7,5.8-6.1,12.5-11.2,17.4C9.9,145.2,9.6,145.1,9.3,144.9
	L9.3,144.9z"/>
<path class="st11" d="M25.2,105.8c1.2-1.4,3-1.2,4.6-1.3c5.7-0.8,11.4-1.9,17.2-2.1c1.8,1.3,0.5,2.3-0.3,3.2
	c-1.5,1.6-3.4,2.8-5.3,3.9c-4.3,2.8-8.6,5.8-12.8,8.7c-1.8,1.2-3.4,1.5-5-0.2C22.9,113.8,23.2,109.7,25.2,105.8L25.2,105.8z"/>
<path class="st9" d="M250.3,175.4c-2.3,2.7-3,6.2-4.6,9.3c-0.2,0.3-0.4,0.2-0.6-0.1c-3.7-7.6-7.4-15.1-11.1-22.7
	c-0.8-1.7-1.5-3.4-2.2-5.1c6,4.9,11.5,10.2,16.8,15.8C249.4,173.4,250.1,174.3,250.3,175.4L250.3,175.4z"/>
<path class="st17" d="M173.6,64.2c4.8-3.1,9.7-6.2,14.5-9.3c-3.1,7.9-6.1,15.8-9.2,23.8l-1.3,2.7c-0.2,0-0.5,0-0.6-0.2
	c-2.8-5.1-4.7-10.5-4.1-16.5C172.8,64.5,173.3,64.4,173.6,64.2L173.6,64.2z"/>
<path class="st14" d="M230.5,242.9c-1,0-2.2,0.8-2.8-0.1c-0.8-1.1,0.6-2,1.2-2.8c4.5-6.1,9-12.2,13.6-18.3c1.5-0.5,1.9,0.4,2.3,1.6
	c1,3.2,1.1,6.4,0.4,9.7C240.5,236.7,235.5,239.8,230.5,242.9L230.5,242.9z"/>
<path class="st18" d="M25.2,105.8c0.1,4.2,0.1,8.4-0.6,12.6c0.2,0.2,0.2,0.3,0.2,0.4c-0.1,0.1-0.2,0.2-0.2,0.2
	c-6.8,3.1-13.6,6.2-20.4,9.3C11.2,120.8,17.7,112.9,25.2,105.8z"/>
<path class="st19" d="M47.1,103.2c-5.8,0.4-11.5,0.8-17.3,1.2c8.5-2.1,17.1-3.4,25.6-4.9c1.2-0.2,2.4,0.2,3.5,0.7
	c4.9,2.3,9.7,4.6,14.6,7c0.6,0.4,1.3,0.9,1.9,1.3c-0.5,2.2-2.2,1.3-3.4,1.1c-7.9-1.7-16.1-2.5-23.7-5.4
	C47.7,104.2,47.4,103.7,47.1,103.2L47.1,103.2z"/>
<path class="st17" d="M245.1,233c-0.8-3.8-1.3-7.6-2.7-11.3c0-0.2,0-0.4,0.1-0.6c3.5-4.1,6.9-8.3,10.4-12.4c0.9-1,1.8-1.9,2.8-2.8
	C252.2,215,249,224.1,245.1,233z"/>
<path class="st20" d="M149.7,212.4c4.8,8.7,9.7,17.4,13.9,26.5c-3.4-3-5.5-7.2-8.9-10.1c-6.1-5.4-5.3-12.7-6.4-19.6l0-0.2
	c2.2-0.4,1.4,1.5,1.9,2.4C150.2,211.8,150,212.1,149.7,212.4L149.7,212.4z"/>
<path class="st20" d="M87.4,61.5c5.2,8.3,9.8,17,13.9,25.9c-3.4-2.4-5.3-6.3-8.6-8.8C88.3,73.7,87.9,67.6,87.4,61.5z"/>
<path class="st3" d="M104.5,201.2c2.1-0.2,4.2-0.5,6.1-1.4c1.4,0.4,1.9,1.4,1.9,2.7c0.2,3.9,0.5,7.9,0.7,11.8
	c-3.7-3.1-5.9-7.4-9.2-10.9C103.2,202.6,104,201.9,104.5,201.2z"/>
<path class="st21" d="M89.4,31c-0.4,8.7-1.3,17.3-2.7,25.9c-1.4-4.5-1.6-9-0.4-13.5C87.4,39.3,88.4,35.1,89.4,31L89.4,31z"/>
<path class="st22" d="M68.3,195.2c1.9-0.5,2.8,1.1,4,2c-7.2,2.1-14.5,3.9-21.8,5.2c5.2-2.8,11.2-3.8,16.5-6.6
	C67.1,195.1,67.7,195.1,68.3,195.2z"/>
<path class="st23" d="M201.3,149.6c4.9,6.8,9.7,13.6,14.6,20.5v0.7c0.1,0.1,0.1,0.3,0.1,0.5c-0.1,2.2-1.4,3.7-2.6,5.3
	c-4.6,5.7-9.1,11.4-13.7,17.2c-1.4,1.8-2.8,3.5-4.8,4.6c-0.3,0.1-0.5,0.2-0.8,0.3c-3.5,3.7-5.9,8.2-9,12.2c-1.7,2.2-3.4,4.4-5.4,6.5
	c-1.1,1.1-1.6,3.7-2.9,5.4c-0.8,1.1-1.6,2-2.5,3.1c-2-1.3-3-3.3-3.8-5.5c-2.2-6.3-4.2-12.6-6.4-19c-0.6-1.9-0.6-3.9-0.9-5.9
	c0.1-0.4,0.2-0.7,0.5-0.9c5.9-0.8,11.8,0.4,17.6,0.8c1.9,0.1,3.7,0.4,5.6,0.4c2.9,0,3.4-1,2.1-3.8c-2.4-5.2-4.6-10.4-7.1-15.6
	c-1.4-2.8-2.5-5.6-2.8-8.7c-0.3-2.1,1.4-3.2,2.7-4.3c4.6-3.8,9.2-7.5,13.8-11.3c1.5-1.2,3.5-1.2,5.1-2.4
	C200.9,149.5,201.1,149.6,201.3,149.6L201.3,149.6z"/>
<path class="st16" d="M152.3,178l1.3-2c7-5.5,15.8-6.5,23.8-9.8c0.6-0.2,1.5-0.4,2.1,0.4c0.5,2,0.4,3.9-0.6,5.7
	c-3.5,6.3-7,12.6-10.5,18.9c-1,1.7-2.3,3-4,3.9l-0.1,0c-0.4,3.4-2.8,5.7-4.9,8.1c-2.1,2.4-4.1,4.8-6.4,7c-0.9,0.9-2.5,2.8-3.6-0.2
	c-1.3-9.4-0.2-18.8,1.9-27.9C151.6,180.8,151.7,179.3,152.3,178L152.3,178z"/>
<path class="st18" d="M179.5,167.4c-7.5,2.5-14.9,5.1-22.4,7.6c-1.1,0.4-2.3,0.7-3.5,1c4.2-6.5,10.1-11.7,14.3-18.1
	c4.3-6.5,9.7-8.6,17.3-7.9c5.1,0.5,10.3-0.3,15.5-0.5c-5.2,5.3-11.4,9.5-17,14.4c-1.2,1.1-2.4,2.3-3.5,3.4
	C180,167.8,179.8,167.8,179.5,167.4L179.5,167.4z"/>
<path class="st21" d="M152.3,178c-0.2,9-1.6,17.9-2.2,26.8c-0.1,2.1-0.2,4.1-0.4,6.2c0.2,0.2,0.2,0.4,0.1,0.5
	c-0.1,0.1-0.1,0.2-0.2,0.2c-0.4-0.9-0.8-1.9-1.3-2.8c0-3.2-0.8-6.4-1.9-9.3c-1.9-4.6,0.3-8.4,1.7-12.4
	C149.3,184.1,150.9,181.1,152.3,178L152.3,178z"/>
<path class="st9" d="M102.7,88.7c1.8-6.8,4-13.6,5.4-20.5l0-0.1c0.3-0.2,0.6-0.3,1-0.3c5,3.4,7.7,8.8,11.6,13.2
	c0.8,0.9,1.6,1.8,2.2,2.9c2.7,4.2,6.3,5.7,11.3,5.9c6,0.3,12.1-0.1,18.1,1.1c1,0.2,2.2,0,2.9,1.2c0.8,2.1-0.8,2.7-2.2,3.4
	c-4.3,2.1-8.8,3.7-13.5,4.9c-1.5,0.4-2.9,0.9-4.3,1.4c-2.1,0.6-4.3,1.2-6.5,0.2c-8.3-3.8-17.1-6.4-24.5-12
	C103.6,89.6,103.1,89.2,102.7,88.7L102.7,88.7z"/>
<path class="st14" d="M173.6,64.2c0.2,4.3,2,8.3,3,12.4c0.4,1.6,0.7,3.2,1,4.8c-0.4,0.4-0.9,0.8-1.3,1.3c-5,3.6-10.1,6.9-15.7,9.4
	c-1.4,0.6-2.9,1.7-4.6,0.8c-1.2-1.2-1.1-2.5-0.2-3.8c5-8.1,10.2-16,15.2-24c0.6-1,1.3-1.8,2.6-0.9L173.6,64.2L173.6,64.2z"/>
<path class="st22" d="M156.3,91.9c6.6-3.1,13.3-6.2,19.9-9.2c-4.4,4.2-8.8,8.5-13.3,12.7c-0.9,0.9-2.1,1.5-3.5,1.8
	c-8.1,1.5-16.2,3.1-24.3,4.6c5-2.8,10.4-4.7,15.5-7.2c1.3-0.6,2.5-1.3,3.8-2C154.6,91.4,155.4,91.4,156.3,91.9L156.3,91.9z"/>
<path class="st4" d="M194,198.5c0-0.2,0-0.4,0-0.6c3.8-1.7,7.6-0.7,11.5-0.4c5.2,0.3,10.3,1.1,15.4,1.5c1.5,0.1,2.9,0.6,4.2,1.4
	c0.3,0.2,0.5,0.5,0.6,0.9c-4.6,9.7-9.8,19.1-15.2,28.4C205.1,219.2,199.6,208.8,194,198.5z"/>
<path class="st24" d="M245.1,184.6c0.2,0,0.4,0.1,0.6,0.1c0,0.2,0,0.4,0,0.6c-6.6,5.3-13.2,10.7-19.9,16l0-0.2c-1.6-1-2.4-2.5-3-4.2
	c-2.1-6.3-4.2-12.7-6.4-19c-0.8-2.3-1.3-4.6-0.6-7.1h0c4.3,1.5,8.1,3.9,12.2,5.8C233.8,179.2,239.4,181.9,245.1,184.6L245.1,184.6z"
	/>
<path class="st9" d="M76.9,109.2c7.1,1.6,11,7.3,15.7,12.1c4.1,4.2,5.9,9.1,6.6,14.7c0.8,6.8,2.7,13.4,2.9,20.2
	c-3.6,6-9.6,9.2-14.8,13.3c-1.3,1-2.7,0.3-4-0.2c-0.9-3.1-0.1-6.3,0.3-9.4c0.9-7.4,1.1-14.9,2.7-22.2c0-0.2-0.1-0.4-0.2-0.6
	c-0.2-0.3-0.4-0.6-0.6-1c0.3-1.4-0.2-2.6-0.8-4c-3.1-6.6-5.6-13.3-8.2-20.1C76,111,75.2,109.8,76.9,109.2L76.9,109.2z"/>
<path class="st12" d="M76.9,109.2l10.5,26.5c-1.9,0.8-3.7,0.3-5.3-0.5c-6.7-3.2-13.3-6.6-20.1-9.7c-1.6-0.7-2.7-2.2-4.4-2.8
	c-0.3-0.1-0.6-0.3-0.8-0.6c-3.9-4.9-6.4-10.5-9-16.1c-0.5-1.1-0.2-2.1,0.7-2.9c9,1.8,18,3.5,27.1,5.3
	C75.9,108.7,76.4,109,76.9,109.2L76.9,109.2z"/>
<path class="st12" d="M84.2,169.4c5.9-4.4,11.9-8.8,17.8-13.3c-2,5.5-3.9,11-5.9,16.6c-0.2,0.2-0.4,0.4-0.7,0.7
	c-1.7,1-3.1,3.6-5.3,0.7c-3.1,0.3-4.6-1.8-6-4c-0.2-0.2-0.2-0.3-0.1-0.4S84.1,169.4,84.2,169.4L84.2,169.4z"/>
<path class="st25" d="M84.2,169.4c0,0.2,0,0.4-0.1,0.7c-5.3,8.4-10.6,16.8-15.8,25.2c-0.4,0.2-0.9,0.4-1.3,0.7
	c-8.7,0.2-17.3-0.4-26-0.7c-1.7-0.1-3.2-0.5-4.5-1.7c-6.3-6-11.8-12.7-17.2-19.5c8.6,0.8,17.1,1.4,25.7,2.3c6.2,0.7,6.5,0.6,9.3-4.7
	c3.8-7.3,7.6-14.7,11.4-22c0-0.2,0-0.3,0-0.5c0.5-1.3,1.4-2.2,2.5-2.9c4.9-3.2,9.9-6.4,15-9.5c1.3-0.8,2.8-1.4,4.3-0.4L84.2,169.4
	L84.2,169.4z"/>
<path class="st3" d="M48.4,103.2c2.4,6.5,6.4,12.2,9.3,18.5c-0.4,3.4-3.1,5.3-5.1,7.6c-3.8,4.4-7.9,8.6-11.6,13.1
	c-1.6,1.9-3.7,3.1-5.8,4.4c-0.2,0-0.4,0.1-0.6,0.1c-0.2,0-0.3-0.1-0.5-0.1c-1.4-1-2-2.4-2.6-3.9c-2.1-5.6-3.9-11.2-6.1-16.8
	c-0.9-2.3-1.2-4.6-0.8-7l-0.1-0.1c0-0.2,0-0.4,0.1-0.7c7.8-4.6,15.2-9.8,22.5-15.2C47.5,103.2,48,103.2,48.4,103.2L48.4,103.2z"/>
<path class="st26" d="M35.1,146.8c1.1-2.8,3.5-4.5,5.4-6.6c5.7-6.2,10.8-12.9,17.2-18.6h0c1.6,1.5,2.6,3.3,3.2,5.3
	c1.8,6,3.4,12,5.2,18c0.4,1.6,0.4,3-0.5,4.4l0.1,0.1C55.5,149.2,45.3,147.7,35.1,146.8L35.1,146.8z"/>
<path class="st27" d="M9.3,144.9H10c1-1.1,2.2-1.1,3.6-1.1c5.5,0,11,0.8,16.5,0.9c1.9,0,3.1,1.1,4.4,2.2l0.1,0.1
	c-5.4,8.7-10,17.9-15.9,26.3C15.5,163.8,12.4,154.4,9.3,144.9L9.3,144.9z"/>
<path class="st15" d="M149.7,211.8c0-0.2,0-0.5,0.1-0.7c5.3-4.9,9.5-10.7,14.5-15.8c2.9,10.3,6.5,20.3,10,30.4
	c-3.1-1.1-5.5-3.6-8.3-4.9c-4-1.8-7.6-4.1-11.6-6c-1.6-0.8-3.1-1.6-4.7-2.4C149.7,212.2,149.7,212,149.7,211.8L149.7,211.8z"/>
<path class="st28" d="M125.9,39c0,0.2,0,0.4-0.1,0.6c-0.1,0.2-0.2,0.4-0.2,0.6c-0.3,0.2-0.7,0.4-1.1,0.5c-7.6,1.3-15.2,0.6-22.8,0.5
	c-1.1,0-1.6-0.9-2.3-1.4c4.2-9,9.4-17.4,14.6-25.8c3.4,7.4,6.7,14.7,10.1,22.1C124.6,37,125.3,38,125.9,39z"/>
<path class="st26" d="M99.4,39.7c8.6,0,17.3,0,25.9,0.1c1.3,1.6,0.2,3.1-0.5,4.3c-4.1,7.3-8.7,14.4-13.1,21.6
	c-0.7,1.1-1.7,1.6-2.6,2.4c-0.2,0-0.3,0.1-0.5,0.1c-0.2,0-0.4,0-0.7,0c-2.6-9.4-5.7-18.7-9.2-27.8C98.9,40.1,99.2,39.9,99.4,39.7
	L99.4,39.7z"/>
<path class="st4" d="M125.8,39.6l30.5,3.3c0.2,0,0.3,0.1,0.5,0.1c1.2,1.4,0.1,2.5-0.5,3.6c-4.2,7.4-7.5,15.2-11.9,22.5
	c-0.7,1.1-1.1,2.5-2.8,2.4c-1.7-1-2.4-2.8-3.3-4.4c-4-7.3-7.7-14.7-11.7-22c-0.9-1.7-1.3-3.4-0.8-5.3L125.8,39.6L125.8,39.6z"/>
<path class="st24" d="M147.7,15.8c8.7,4.7,17.4,9.4,26.1,14.1c0.8,0.4,1.6,0.8,2.4,1.2c0,0.2,0,0.4,0,0.6c-1.1,2.2-3,3.5-5.1,4.7
	c-4,2.1-7.6,4.7-11.7,6.6c-1,0.5-2.1,1.6-3.1,0.1l0-0.2C153.5,33.8,150.1,25,147.7,15.8z"/>
<path class="st17" d="M90.1,174c1.8-0.2,3.5-0.4,5.3-0.7c-1,3.4-2.2,6.8-4,9.9c-0.2-2.1-1.4-3.7-2.4-5.4
	C87.9,176.1,88.1,174.8,90.1,174L90.1,174z"/>
<path class="st29" d="M156.3,43.1c6.5-3.9,13-8,19.9-11.4c-0.8,8.5-1.6,17-2.4,25.5c-0.2,2.3-0.2,4.6-0.3,6.9
	c-5.4,8.4-10.7,16.8-16,25.2c-0.5,0.8-0.8,1.8-1.2,2.7c-0.6,0.2-1.3,0.5-1.9,0.7c-8.4-0.5-16.7-0.9-25-1.4c-1.7-0.1-3.3-0.6-4.4-2
	c-5.5-7-11.3-13.8-16.3-21.2l0,0c1.1-0.9,2.3-1.5,3.7-1.4c8.1,0.7,16.3,0.8,24.4,1.6c1.9,0.2,3.5,0.8,5,1.8
	C147.3,61.4,151.2,51.9,156.3,43.1L156.3,43.1z"/>
<path class="st30" d="M34.4,146.8c-8.1-0.6-16.3-1.3-24.4-1.9c3-7,7.4-13.2,11-19.8c1.1-2,2.4-4,3.5-5.9
	C28.2,128.2,31.6,137.4,34.4,146.8z"/>
<path class="st26" d="M215.9,170.7c3.5,10.1,7.1,20.1,10,30.3c-10.6-0.8-21.2-1.7-31.8-3.2C201.4,188.8,208.6,179.8,215.9,170.7z"/>
<path class="st31" d="M179.5,167.4c0.2,0,0.4-0.1,0.6-0.1c3.3,8.8,7.6,17.1,11.4,25.6c0.6,1.3,1.9,2.8,0.8,4.2
	c-1,1.2-2.7,0.6-4.1,0.5c-8-0.8-15.9-1.6-23.9-2.4C169.4,185.9,174.4,176.7,179.5,167.4z"/>
<path class="st3" d="M65.6,149.5c-2.6-9.3-5.3-18.5-7.9-27.8c6.7,3.1,13.3,6.2,19.9,9.3c3.3,1.5,6.5,3.1,9.8,4.6c0,0.2,0,0.4,0,0.6
	c-6.3,3.3-12,7.6-18.1,11.2C68.1,148.2,67,149.2,65.6,149.5L65.6,149.5z"/>
<path class="st5" d="M141.8,70.1c-11.1-0.3-22.1-1.2-33.1-2c4.2-8.1,9.4-15.6,13.9-23.5c0.9-1.6,1.8-3.2,2.7-4.9c0.2,0,0.4,0,0.6,0
	C131.2,49.8,136.5,60,141.8,70.1L141.8,70.1z"/>
</svg>
