<svg xmlns="http://www.w3.org/2000/svg" xmlns:xlink="http://www.w3.org/1999/xlink" viewBox="0 0 420.26 420.1"><defs><style>.b4aa2bd7-a2cc-48d2-844c-b8f9e7c3707e{fill:url(#a45d3211-b1a8-4b3b-b95f-369f7407a9f5);}</style><linearGradient id="a45d3211-b1a8-4b3b-b95f-369f7407a9f5" x1="8.16" y1="209.56" x2="404.16" y2="209.56" gradientUnits="userSpaceOnUse"><stop offset="0" stop-color="#fff"/><stop offset="0" stop-color="#f8fcfe" stop-opacity="0"/><stop offset="0.18" stop-color="#f7fbfd" stop-opacity="0.01"/><stop offset="0.25" stop-color="#f2f9f8" stop-opacity="0.04"/><stop offset="0.3" stop-color="#eaf6f0" stop-opacity="0.1"/><stop offset="0.35" stop-color="#dff0e4" stop-opacity="0.18"/><stop offset="0.38" stop-color="#d0e9d4" stop-opacity="0.28"/><stop offset="0.42" stop-color="#bee1c2" stop-opacity="0.41"/><stop offset="0.44" stop-color="#b1dbb4" stop-opacity="0.5"/><stop offset="0.46" stop-color="#a9dabd" stop-opacity="0.58"/><stop offset="0.5" stop-color="#9ed8cb" stop-opacity="0.69"/><stop offset="0.55" stop-color="#94d6d7" stop-opacity="0.79"/><stop offset="0.6" stop-color="#8cd4e1" stop-opacity="0.86"/><stop offset="0.65" stop-color="#86d3e8" stop-opacity="0.93"/><stop offset="0.72" stop-color="#81d3ed" stop-opacity="0.97"/><stop offset="0.81" stop-color="#7fd2f0" stop-opacity="0.99"/><stop offset="0.99" stop-color="#7ed2f1"/></linearGradient></defs><g id="b4833321-fc91-4109-ac30-2c86153f72c6" data-name="Layer 7 copy"><circle class="b4aa2bd7-a2cc-48d2-844c-b8f9e7c3707e" cx="206.16" cy="209.56" r="198"/></g><g id="bf9ede55-e119-4da5-9e66-132a9c814982" data-name="Layer 2"><path d="M212.66,420.1H201.13a10.59,10.59,0,0,0-1.48-.23c-2.35,0-4.7,0-7.06,0v-.5H201c-.08-.17-.16-.21-.23-.21a197.16,197.16,0,0,1-85.87-22.29C92.36,385.09,72.74,369.46,55.37,351a197.62,197.62,0,0,1-34.63-51.25A210.24,210.24,0,0,1,.68,222.88c-.19-2.91-.45-5.8-.68-8.7V202.9c.12-.62.29-1.23.35-1.85.71-7.67,1.1-15.4,2.17-23a195.49,195.49,0,0,1,13.31-47.88c12-28.93,28.9-54.5,52-75.87A200.87,200.87,0,0,1,144.18,10,198.17,198.17,0,0,1,181,1.86C187.77,1,194.59.41,201.41.12c5.94-.25,11.92-.08,17.86.22,6.1.3,12.21.78,18.27,1.53a213,213,0,0,1,44,10.46,203.69,203.69,0,0,1,81,51.87A200,200,0,0,1,403.22,127a229.17,229.17,0,0,1,13.9,48.87,242.1,242.1,0,0,1,3.06,30c.21,4.42,0,8.87-.16,13.3a188.79,188.79,0,0,1-3.34,30.35,198.07,198.07,0,0,1-19.55,55.74,209.9,209.9,0,0,1-45,57.26q-4.85,4.38-10,8.46a221.6,221.6,0,0,1-71.35,38.16,207.62,207.62,0,0,1-49.43,9.52c-2.89.2-5.78.35-8.68.53v.16h7.77a16.2,16.2,0,0,1-2.49.27Zm74.92-295H166.21c-.55,0-1.11,0-1.67,0a6.25,6.25,0,0,0-4.45,1.78c-2,1.88-4,3.7-5.9,5.63-2.09,2.08-4,4.42-4.55,7.34a7.38,7.38,0,0,1-4.2,5.43c-.71.37-1.35.86-2,1.26a63,63,0,0,0-12,9.17,3,3,0,0,0-.83,2.82c.37,3,.59,6,.9,9.17a12.54,12.54,0,0,1-5.9-2.32c-2.36-1.92-2.3-4.56-2-7.35h-1.44c-5.92,0-11.84.12-17.76-.05a15.81,15.81,0,0,0-8.67,2.26c-7,4.1-11.94,9.72-13.09,18-1,7.28,3.63,11.47,10.79,9.83a30.59,30.59,0,0,0,10.48-4.86c1.55-1.06,3-2.28,4.53-3.36a1.59,1.59,0,0,1,1.29-.19c.25.08.46.71.43,1.06a25.47,25.47,0,0,1-.7,4.72c-.71,2.31-1.71,4.52-2.61,6.83.26.07.64.19,1,.27,2.7.54,5.4,1.11,8.11,1.59a1.46,1.46,0,0,1,1.4,1.57c.33,4.35.74,8.68,1.09,13a2.86,2.86,0,0,0,2.16,2.72c2,.65,4.11,1.3,6.21,1.79,5.18,1.23,9.5-.49,12.52-4.87.68-1,1.3-2,2-3a5.09,5.09,0,0,1,5.64-1.94c2.1.5,4.19,1,6.28,1.55a5.49,5.49,0,0,1,3.76,2.37c2.42,4.44,10.38,4.87,14,1.41a2.63,2.63,0,0,1,3.21-.54,9.85,9.85,0,0,1,4.58,3.9c1.51,2.26,2.91,4.6,4.55,6.76a6.89,6.89,0,0,0,6.62,2.55,23,23,0,0,1,4.06-.06,6.19,6.19,0,0,1,5.55,4.12c.73,1.78.77,1.8,2.75,1.8H332.88a11.4,11.4,0,0,0,1.31,0,2.52,2.52,0,0,0,.65-.26,43.43,43.43,0,0,0-6.09-.89c-3.59-.28-6.84-1.23-9.21-4.19a2.39,2.39,0,0,0-1.26-.59A15.17,15.17,0,0,0,308,222.66a26.77,26.77,0,0,1-4.8,1.82c-5.34,1.39-10.83,1.48-16.3,1.7a7.12,7.12,0,0,1-5.93-2.61c-4.46-5.13-8.92-10.26-13.31-15.45a6.69,6.69,0,0,1-1.49-2.94c-.57-3.42-1-6.86-1.35-10.31a11.06,11.06,0,0,1,2.39-8.53A37.57,37.57,0,0,0,270,181.8l-2.21-.27a4.39,4.39,0,0,1-3.72-3,4.23,4.23,0,0,1,.77-4.7A21.68,21.68,0,0,1,268,171q6.66-4.71,13.42-9.26a5.82,5.82,0,0,0,2.9-5.41c-.07-1.79,0-3.59.12-5.39A4.23,4.23,0,0,1,285.8,148c3.78-3.86,8.37-5.18,13.65-4.77a19.7,19.7,0,0,0,10.85-1.78,15.91,15.91,0,0,1,5.21-1.68c6.7-.79,13.43-1.37,20.26-2v10.82l22.81,6.85c.68.21,1,0,1-.68a39.48,39.48,0,0,1,.32-3.94,1.84,1.84,0,0,1,1-1.28c3.93-1.18,7.73-1,11.22,1.45q1.92,1.34,3.86,2.64a13.37,13.37,0,0,0,8.05,2.27q4.62-.15,9.23-.23c2.1,0,2,0,1.39-1.89-1-3-1.91-6-2.67-9.06-.9-3.61-2.83-5.31-6.56-5.41-.8,0-1.6,0-2.4,0-4.19-.1-6.51-1.7-7.72-5.7A49.77,49.77,0,0,1,374,127c-.14-.84-.43-1.11-1.25-.88a5.92,5.92,0,0,0-4.53,4.18c-.28.95-.48,1.93-.75,2.89-.44,1.58-.92,3.16-1.41,4.83-4.91-3.12-7.56-7.25-7.52-12.85h-9.9c1.55,1,2.81,1.92,4.1,2.75.78.5.85,1,.54,1.91a13.8,13.8,0,0,0-.88,4,4.26,4.26,0,0,1-2.43,3.95,6.15,6.15,0,0,1-7.09-1.12,14.57,14.57,0,0,1-1.49-2.52c1.62,0,2.81,0,4,0A3.64,3.64,0,0,0,347,134c.65-.37,1.48-.91,1.63-1.53s-.55-1.37-1.09-1.75c-2.51-1.79-5.09-3.46-7.67-5.15a2.37,2.37,0,0,0-1.21-.41c-6.6,0-13.2,0-19.8,0a2.31,2.31,0,0,0-1.64.92c-1.54,2.37-3.05,4.77-4.42,7.25-1.72,3.11-4,5.52-7.7,5.78a90.16,90.16,0,0,1-10.78,0,4.91,4.91,0,0,1-4.91-4.16c-.11-.54-.32-1.07-.42-1.62C288.5,130.67,288.06,128,287.58,125.1ZM175,46.08c-.35.42-.59.74-.87,1-1.31,1.34-2.68,2.63-4,4a3.72,3.72,0,0,0,1.45,6.36c1.52.57,3.1,1,4.82,1.55,0-.64,0-1.11,0-1.58,0-1.71,0-3.44.21-5.14a4.17,4.17,0,0,1,2.27-3.6A49.85,49.85,0,0,1,185.18,46c4.2-1.36,8.47-.78,12.7,0a30,30,0,0,1,13.87,5.86c2.32,1.85,3.45,4.16,2.61,7.17,0,.1,0,.23.07.36l2.6.91,2.58.87c-.65,3.1-3.38,5.11-6.89,5a4.87,4.87,0,0,0-4.79,2.75,17.08,17.08,0,0,0-1.22,2.6c-.3.92-.79,1-1.62.78-2.91-.73-5.83-1.4-8.74-2.11l-8.1-2L203,60c-.6-.4-1-.64-1.38-.93-4-3.17-8.44-3.72-13.26-2.46-5.05,1.33-9.3,4.14-13.48,7.13-.89.63-1,1.19-.39,2a12.56,12.56,0,0,1,.81,1.46l-9.07,5-1.84-7a2.93,2.93,0,0,0-.43.13c-7.72,4-15.45,8-23.14,12.14a2.22,2.22,0,0,0-.9,1.62,8.91,8.91,0,0,0,6.27,9.16,68.5,68.5,0,0,0,8.3,1.8c1.17.19,1.53.58,1.49,1.74-.08,2.64-.05,5.28,0,7.92,0,1.26.72,1.78,1.75,1.31a2.92,2.92,0,0,0,1-.82c1.67-2,3.37-4,4.94-6a10.85,10.85,0,0,1,6.78-4.57,7.54,7.54,0,0,0,1.69-.59,3.56,3.56,0,0,0,2.41-3.63c-.05-1.63-.12-3.27-.13-4.91a9,9,0,0,1,.2-3.18A9.38,9.38,0,0,1,184.49,72c2.77.57,5.47,1.44,8.22,2.14a1.27,1.27,0,0,1,1,1.51c-.07,1.12-.13,2.23-.18,3.35-.08,1.54-.14,3.08-.22,4.8l13.26-5.2c.11,1.9.21,3.57.3,5.24.23,4.15,1.69,7.54,5.75,9.34a3.28,3.28,0,0,1,2,4.17,6.88,6.88,0,0,1-3.36,4.32c-1.25.72-2.44,1.54-3.84,2.43.76.58,1.2,1,1.7,1.29,1.8,1.11,3.61,2.21,5.46,3.24a4.13,4.13,0,0,0,1.91.51q44.1,0,88.2,0a1.71,1.71,0,0,0,1.92-1.34c.67-2,1.75-2.69,3.83-2.42,3.82.5,6.59-1,8.63-4.16,1-1.51,2-3,3.1-4.41A6.76,6.76,0,0,1,328,94.06l10.44.11c.42,0,.85,0,1.35,0-.46-3-.91-5.9-1.37-8.87l-7.76,2.84c-.22-.54-.42-1-.57-1.42-1-2.74-2.41-5-5.21-6.24a4.42,4.42,0,0,1-1.3-1,2.73,2.73,0,0,1-.1-4.14,18.69,18.69,0,0,1,3.2-2.7c2.47-1.62,5.05-3.07,7.55-4.64,1.24-.78,2.4-1.69,3.6-2.54a2.69,2.69,0,0,0-.29-.56,9.09,9.09,0,0,0-.77-.75A193.5,193.5,0,0,0,293,35.2a190.17,190.17,0,0,0-66.71-18.13,194.31,194.31,0,0,0-37.36.38A191,191,0,0,0,146.57,27,169,169,0,0,0,99.86,51.72c-.38.29-.7.65-1.18,1.1l1.06.24,15.69,3.38a8,8,0,0,1,4.91,3.2,1.61,1.61,0,0,0,1,.67c3.58,0,7.17,0,10.78,0a4.51,4.51,0,0,0-4.35-3.83c-1.27-.07-2.56.05-3.83,0-1.08-.06-2.16-.29-3.35-.45.3-.63.5-1,.68-1.42,1-2.18.27-3.51-2.12-3.78-1.51-.17-3-.1-4.55-.13H112.4a34,34,0,0,1,8.28-7.21c3.93-2.23,7.74-2.2,11.49.42,2.19,1.53,4.38,3.07,6.63,4.53,3.47,2.25,6,2.12,9.35-.39.89-.67,1.73-1.42,2.65-2.05a2.55,2.55,0,0,1,3.13-.06c.81.55,1.06,1.07.42,2a12.54,12.54,0,0,1-11.6,5.91c-1.06,0-2.12-.16-3.34-.26.36,2.33.69,4.5,1,6.69,3.33,0,6.53.06,9.72,0a2.76,2.76,0,0,0,1.85-1.1A5.41,5.41,0,0,1,155.94,57c1.39-.19,2.78-.37,4.14-.67S162,55.17,162,53.66s-.49-2-2-2.35c-1-.23-2-.5-3.11-.77,1.46-2.52,3.56-4.28,6-4.4C166.83,45.94,170.82,46.08,175,46.08Zm15.42,299.07.16.31h153a3.53,3.53,0,0,0,1.08,0,5.36,5.36,0,0,0,2.21-1c3.76-4.26,7.43-8.59,11.11-12.91a3.15,3.15,0,0,0,.38-.83,4.33,4.33,0,0,0-.92-.35c-1.41-.17-2.83-.3-4.28-.44.05-.37.07-.56.09-.76.72-6.11-.36-11.85-4.06-16.82a18.6,18.6,0,0,1-3.62-13.65,12.88,12.88,0,0,0-3.7-11c-2.52-2.49-2.63-5.11-1.26-8.07,1.43-3.12,2.84-6.25,4.35-9.34a6.92,6.92,0,0,0-.2-7.07c-1.44-2.4-2.88-4.8-4.16-7.28q-2.77-5.35-5.29-10.85c-.74-1.62-1.07-2.05-2.91-2-3.32,0-6.64.08-10,.08H218.16a12.82,12.82,0,0,0-1.39.13l0,.36c.41,0,.82.09,1.23.11,3.91.21,7.82.46,11.73.61a4.47,4.47,0,0,1,4.09,2.58,13.7,13.7,0,0,0,9.11,7.22c.91.22,1.85.32,2.86.49-.11.33-.2.58-.29.84-1.46,4.16-4,7.72-6.49,11.3a25.83,25.83,0,0,0-4.86,14.65,60,60,0,0,1-.91,9.65c-1.16,6.47-5.86,10-12.4,9.58a16.2,16.2,0,0,0-3.94.07c-4,.79-6.18,4.14-5.61,8.58.31,2.37.86,4.71,1.23,7.08a7.53,7.53,0,0,1-2.18,7,14.94,14.94,0,0,0-1.72,1.84c-2.74,3.69-5.54,7.34-8.15,11.12a22,22,0,0,1-9.11,8.09A5.28,5.28,0,0,0,190.43,345.15Zm-171.25-102a10.6,10.6,0,0,0,.12,1.5c1.75,6.64,3.2,13.38,5.34,19.89,10.25,31.08,28,57.33,51.65,79.78a4,4,0,0,0,2.9,1.15q39.54,0,79.09,0c.37,0,.75,0,1.3-.07-.3-.52-.49-.9-.73-1.25-.78-1.16-1.55-2.33-2.37-3.47a8.81,8.81,0,0,1-1.39-7.4c.61-2.89,1-5.82,1.66-8.71a1.73,1.73,0,0,0-1.14-2.33,3.69,3.69,0,0,1-2.42-3.3c-.22-3.83-.46-7.67-.46-11.5,0-4.47.3-8.94.39-13.42.07-3.63-1.1-6.6-4.5-8.5-3.86-2.17-7.61-4.55-11.41-6.82a6,6,0,0,1-2.53-3.63,19.33,19.33,0,0,0-2.25-5.08,45.76,45.76,0,0,0-5.13-6.17,22.46,22.46,0,0,1-6.86-18.11c.06-.82,0-1.65,0-2.54ZM160.85,363c-.49-1.83-.59-1.91-2.44-1.91l-59.52,0a5.89,5.89,0,0,0-.84,0c-.17,0-.44.14-.47.25a.86.86,0,0,0,.16.62,4.91,4.91,0,0,0,.76.58A213.87,213.87,0,0,0,158,392.44a192.36,192.36,0,0,0,50.55,9.21,179.11,179.11,0,0,0,38.7-2.28,169.91,169.91,0,0,0,49.45-16.5,176.73,176.73,0,0,0,31.08-20.49c.34-.27.62-.62,1.16-1.16-.69-.06-1-.12-1.37-.12H302q-61,0-122,0a7.58,7.58,0,0,0-1.93.52l.09.49c2.49,1.06,5,2.15,7.47,3.16a.92.92,0,0,1,.67,1.26c-.29,1.41-.52,2.83-.77,4.24-1,5.62.46,8.87,5.24,11.87,1,.62,1.72,1.34,1.46,2.62a2.77,2.77,0,0,1-2.67,2.18c-1.63.09-3.27.16-4.91.12-3.08-.07-6-.78-8.21-3.07-2.9-3-5.78-6-8.54-9.08M32.64,136.84l-.27-.17a5.59,5.59,0,0,0-.83,1.07,184.14,184.14,0,0,0-15,55.74,171.91,171.91,0,0,0-.25,32.32c.11,1.25.55,1.6,1.76,1.6q55.43,0,110.86,0a13.87,13.87,0,0,0,1.44-.06,1.29,1.29,0,0,0,1.33-1.39c0-.84,0-1.68-.1-2.52-.21-2.59-1.43-4.6-4-5.3a29.08,29.08,0,0,0-6.69-1,11.12,11.12,0,0,1-8.25-3.5c-1.5-1.6-2.89-3.31-4.33-5a24.09,24.09,0,0,0-7.45-6.12,22.92,22.92,0,0,0-9-2c-1.06-.06-1.37-.43-1.3-1.45s0-2.32,0-3.48-.42-1.25-1.34-.92a22.65,22.65,0,0,1-3.52,1.16,15.16,15.16,0,0,1-4.71.47,64.35,64.35,0,0,1-7.84-1.67c-5.46-1.42-9.39-4.63-11.33-10a4.76,4.76,0,0,1,.34-4.47c1.1-1.7.77-3.33-.37-4.9-1.61-2.19-3.22-4.38-4.78-6.6a28.06,28.06,0,0,1-4.66-9.14,65.38,65.38,0,0,1-1.2-7.79c-.09-.69-.34-1.06-1-1-1.18,0-2.36.16-3.79.27.27,2.18.18,4.34.84,6.25,1.25,3.61,2.9,7.07,4.43,10.58,1.33,3.06,3.17,5.92,3.7,9.5a17.82,17.82,0,0,1-2.51.09C49.42,177,47,175,45.22,172.19a27.26,27.26,0,0,1-4.39-12.43c-.26-2.85-.15-5.74-.13-8.61a3.88,3.88,0,0,0-2.74-4c-.41-.15-.81-.32-1.22-.48a5.69,5.69,0,0,1-4.09-5.83C32.62,139.48,32.64,138.16,32.64,136.84Zm318-59.35-.24.07.15,1.86c.39,4.78-1.56,8.08-5.92,10-.22.1-.51.14-.64.31-.53.68-1.7,1.21-1.09,2.24a2.86,2.86,0,0,0,1.94,1.19,48.43,48.43,0,0,0,6.81.14c5-.32,4.27.54,7.47-4.58.08-.13.24-.27.24-.4,0-.35.07-.82-.12-1C356.44,84,353.56,80.76,350.68,77.49ZM204.69,102l-3.24,1.43a11.22,11.22,0,0,1-8.39.38c-2.34-.78-4.75-1.34-7.14-1.93-1.39-.34-2.17.2-2.62,1.58a2,2,0,0,0,1.17,2.58c1.55.76,3.17,1.38,4.78,2.07l-.35.95c3.63,0,7.15-.09,10.66,0,1.81.06,3.31,0,3.76-2.16a1,1,0,0,1,.24-.41C204.67,105.28,204.76,103.76,204.69,102ZM114.56,94c1,2,1.91,3.89,2.86,5.73a1.14,1.14,0,0,0,.73.51A3.9,3.9,0,0,0,122.74,98a49.54,49.54,0,0,0,1.63-5.7Zm-6.78-33-8.1,1.6a8.23,8.23,0,0,0-2,.47A1.57,1.57,0,0,0,97,64.17a2.7,2.7,0,0,0,3.06,2.9c1.91-.08,3.82-.29,5.72-.51a2.14,2.14,0,0,0,2-2.18C107.84,63.31,107.78,62.23,107.78,60.93Zm.41,10.76c-.07,0-.15-.08-.21-.07-3.17.76-6.35,1.51-9.51,2.33a1.12,1.12,0,0,0-.56.94c.13.41.56,1,.9,1A41.29,41.29,0,0,0,105,76C107.75,75.73,108.53,74.52,108.19,71.69Zm278.05,59.14c-1.32-2.72-2.54-5.27-3.8-7.79a1,1,0,0,0-.79-.51.94.94,0,0,0-.59.7c0,2.62,0,5.25,0,8ZM140.6,109a3.53,3.53,0,0,0-2.62-2.4,10.33,10.33,0,0,0-6.88.63,28.89,28.89,0,0,0-2.57,1.52l.13.25Zm4.05,16.06c-1.93,0-3.8,0-5.67,0a2.07,2.07,0,0,0-1.95,2.64.78.78,0,0,0,.55.47,28.81,28.81,0,0,0,4.74-.05C143.91,127.94,144.58,126.9,144.65,125.1Z"/></g></svg>