<svg xmlns="http://www.w3.org/2000/svg" viewBox="0 0 512 512"><defs><style>.a{fill:#fff;}.b{fill:none;stroke:#231f20;stroke-miterlimit:10;stroke-width:16px;}</style></defs><path d="M463.59,225.09C429.44,9.44,132.73-19,58,186.22c-28.85,79.36-4.51,172.63,59.67,227.56C261.7,543,493.58,415.61,463.59,225.09Zm-36.74-55.51,1-.29,4.05,8.42-5.08.44Zm-37.52-32.73c6.16-2.13,7.68-6,6.87-12.75l9.4,10.7c-1.47,1.89-2.61,4.87-4.28,5.2C399,140.19,384.65,142,389.33,136.85ZM149.85,113.57c-2.4-.28-6.92,2.74-7.11-3.52l10.86-2.19C154.2,112.29,153.23,114,149.85,113.57Zm4.49,4.82c-.53,2-.61,3.93-1.14,4.07-3.16.8-6.42,1.25-9.52.12,0-.53,0-1,0-1.58Zm276.37,84.35c-11.76,1.17-11.49-10.39-25.3-6-.1,1.88-.2,3.63-.33,5.82l-23.48-7.07v-11c-9.42,2-18.84-.1-27.48,4.83-10.32,2.91-12.93-3.07-23.5,6.33-2.27,2.92,1.59,10.77-3.69,13-3.17,2.93-19.94,11.71-17.67,15.49.77,2.79,1.71,4.74,6.48,4.4-2.07,3.18-2.93,5.35-4.74,7.43-1.49,2.42-.29,16.36,1.6,18.52,4.52,5.13,9.35,10,13.45,15.46,2.81,3.71,6.26,3.31,9.86,3.07,6.17-.69,13-.42,18.46-3.67,2.5-1.59,9.3-2.21,11.06-.05,4.08,4.89,9.79,3.27,15.31,4.56-3.9,17,2.85,23.27,10.36,37.24a7.06,7.06,0,0,1,.12,5.16c-12.51,22.71-1,12.88.35,27.33-2.32,18.1,9.77,13.91,7.34,33.53l5.55.44C268.38,550.74-9.25,377.84,78.67,182.33c-2.12,16.64,8.42,7.21,7.87,16.79-1.31,8.67,3.23,27,15,25.3-1.8-9.87-9.78-15.58-8.61-26.45l4.2-.19c-.73,10.12,5.19,17.12,10.45,24.38,3.64,4.4-2.7,5.28.5,10.18,3.74,9.57,12.67,9.46,20.49,11.46,2.7-.26,4.82-1.46,7.87-2.28v6.23c18.32-1.07,18.7,16.2,29.16,16.35,9,0,13,1.54,11.49,11.31a5,5,0,0,1-2.6,3.2c-11,5.84-10.49,23.56-2.19,31.43,17.15,17.82-2.7,9.2,24.63,24.28,5.6,4.64-3.23,36.79,5.79,35.29-.64,3.9-.88,7.61-1.92,11.07-2.19,8.06,8.8,10.87,5.45,20-2.26,12.25,6.58,21.7,14.41,29.37,3.88,5.11,9.29,5.05,14.79,4.64,2.39,0,3.21-3.31,1.93-4.61-8.34-4.62-6.7-9.75-5.18-17.53l-8.38-3.5,5.66-7.94c-1.52-2.44-3.29-2.61-5.37-4.18,24.71-9.4,15.53-7.16,31.15-25.65,7.68-6.38-1.56-13.5,3-20.68,3.86-6,11.08.16,16.08-4.9,6.09-4.3,4.93-12.3,5.81-18.91-.2-10.59,8.6-15.21,11.35-25.31-6.84-.44-10-4-12.49-8.67-.54-1-2.7-1.61-4.1-1.59-8.25.12-16.32-.35-24-4.08-5.28-1.62-2.47-7.62-4.31-11.53-2.36-6.58-3.59-7.52-10.67-7.2-10.09,1.36-8.61-12.91-18.26-13.69-2.75,4.34-11.59,4.63-14.55.06-2.27-3.49-5.93-2.71-9-3.9-4.07-1.61-6.57.05-8.46,3.28-3.62,6.17-8.5,7.65-15.38,5.55-6-1.84-6.18-1.31-6.4-7.66-.11-3.63-.57-6.68-.92-10.64l-10.73-2.12a23.42,23.42,0,0,0,3.73-12.44l-1.21-.59c-31.88,26.45-35.12-11.39-9.1-21,7.75-1.11,15.12-.18,23.53-.47-1.6,6.87,2.52,9,8,10-2.18-13.2,3.86-16.53,14-22.7,2.39-1.38,4.15-2.94,4-6,4.13-7.85,12.15-14,19.94-18.68,5.93-1.74,10-15.61,16.82-8.88l3.26-3.64c-3.51-.65-8.77-2.33-5.25-6.07,10.74-.06,8.51,6.18,20.41.06-.17,1.3.1,3-.6,3.83-5.9,6.76,7.22,6.58,11.1,8.64,3.58-6.67-4.27-6.62-7.58-10.18a26,26,0,0,1,3.82-2.45c3.05-1.28,4.62-7.3,1.85-8.37-7.64-2.86-5.93-8.92-6.84-14.79l-13.24,5.27c.23-3.87.38-6.52.56-9.44-8.24-2.41-13.49-5.36-19.39,2.82-.49,3.14,1.11,7.94-.53,10.4-1.33,2-5.43,2-7.75,3.65-3.07,3-5.14,7.48-8.83,10.17l-1.39-.84V137.28c-7-1.55-15.87-.5-16-12.23l24.54-12.86c.72,2.83,1.14,4.52,1.83,7.22l9.17-5.06-1.57-2.73c8.5-6.29,19.65-12.86,28.86-4.51-5.93,3.3-8.83,4.9-14.84,8.18l18.43,4.4c4.06-12.89,9.67-.1,13.46-11.61L260,106.24c4.4-10.06-21.74-16.51-28.46-13.39-8.83,3-9.7,3.18-9.08,13.15-2.69-1-6-1.28-6.89-2.87-2.89-5,3.56-6,5.27-10.21-7.39.45-13.57-2.57-18.42,4.75l5.06,1.24c2.22,8-7.93,2-9.92,7.86-2.91,1.42-7.75.41-11.29.69-.32-2.18-.61-4.15-1-6.77,7,1.41,12.2-.68,15.6-6.79-1.85-2.2-3.54-2-5.7.27C181.41,106.11,178.72,74.11,158,97.9c4,.33,12.84-1.76,8.36,5,3.5,2.28,9.38-2,11.93,4.45H166.58c-1.7-3.84-7.33-5.41-22.16-7.56,60.12-46.53,163.7-54.29,239.18,12.31-3.51,4.58-23,10.12-11.89,16.09,2.76,1.26,3.75,4.28,4.77,7.1l7.81-2.92c.48,3.13.88,5.74,1.33,8.64-4.27,0-8.29.11-12.31,0-8,.21-7.2,12.55-16.32,11.37-5.91-.76-4.66,4.89-5.76,8.92l4,1.6-1,4.38c-7.19.79-21.67-3.84-20.76,7.54.48,5.62,1.36,11.69,8.35,11.42,7.24.34,14.61,1.25,17.47-8,10.82-17.48,8.66-2.31,19.06-13.28,3.07,7.49,11.22,8.74,16.07,14-1.34,4.17-5,1.08-7.44,2.29,1.09,6.11,12.18,5.51,11.05-1.3-.18-1.21.8-2.59,1.35-4.2-4.14-4.5-13.39-4.59-13-14.16,2.58.16,5.73-.53,7.76.67,3.29,2.58,8.25,5.55,9.55,9.64,1.13,7.51,1.8,8.68,7.75,13.32,2.71-3.94.36-11,7.84-12.32,1.5,22.84,14.55,6.48,18,18.54.76,3.43,2.18,6.71,3.71,11.28C437.26,202.69,434,202.5,430.71,202.74ZM160.38,140.89l9.56-1.64c-.57,5.19-1.41,8.4-6.44,7.93C162.72,145.62,161.78,143.72,160.38,140.89Zm26,26.42v-5.46h5.55C192.92,165.74,192,166.73,186.36,167.31Zm-3.64,7.83c.24-5.17,4.72-4.66,8.06-6.39C191.35,174.73,189.44,176.12,182.72,175.14Zm4-15.17-14.69-.8C172.66,152.75,189.39,149.64,186.68,160Zm-5,2-7.29,10.39C166.76,171.27,173.07,159.67,181.66,161.93Zm13.22,3.67c2.39,1.79,7.3-.19,7,5.51C195,171.9,194,171.11,194.88,165.6Z"/><path class="a" d="M396.2,124.1l9.4,10.7c-3.07,7.58-9.59,5.41-16.08,5.27a1.89,1.89,0,0,1-1.2-1.4C391.7,132.48,397.29,138.06,396.2,124.1Z"/><path class="a" d="M186.68,160l-14.69-.8C172.66,152.75,189.39,149.64,186.68,160Z"/><path class="a" d="M174.37,172.32c-7.61-1-1.3-12.65,7.29-10.39Z"/><path class="a" d="M142.74,110.05l10.86-2.19c.6,4.43-.37,6.11-3.75,5.71C147.45,113.29,142.93,116.31,142.74,110.05Z"/><path class="a" d="M169.94,139.25c-.57,5.19-1.41,8.4-6.44,7.93-.78-1.56-1.72-3.46-3.12-6.29Z"/><path class="a" d="M190.78,168.75c.57,6-1.34,7.37-8.06,6.39C183,170,187.44,170.48,190.78,168.75Z"/><path class="a" d="M143.69,121l10.65-2.61c-.53,2-.61,3.93-1.14,4.07-3.16.8-6.42,1.25-9.52.12Z"/><path class="a" d="M201.87,171.11c-6.89.79-7.89,0-7-5.51C197.27,167.39,202.18,165.41,201.87,171.11Z"/><path class="a" d="M186.36,167.31v-5.46h5.55C192.92,165.74,192,166.73,186.36,167.31Z"/><path class="a" d="M427.88,169.29l4.05,8.42-5.08.44v-8.57Z"/><path d="M353.4,142.62a52.82,52.82,0,0,0-3.75-4.6c-1.93-1.82-5.78-2.15-4.95-6.06.86-4.1,4.5-3.68,7.58-4.25a34.54,34.54,0,0,0,10.91,18.15c-3.22,6.61-10,3.43-16,4.51C347.44,146.54,346.29,142.67,353.4,142.62Z"/><path d="M334.37,147.33c-1.07-7.44,7.13-14.39,12.26-9a5.7,5.7,0,0,1-1.65,4.77C339.29,148,339.14,147.86,334.37,147.33Z"/><path d="M245,160c-3.46,4-9.59,11.47-11.6,2.8C243.13,162.62,237,158.54,245,160Z"/><line class="b" x1="112.45" y1="400.38" x2="400.38" y2="400.38"/><line class="b" x1="53.38" y1="282.25" x2="459.44" y2="282.25"/><line class="b" x1="75.53" y1="164.13" x2="437.29" y2="164.13"/></svg>